{"glyphs":{"0":{"ha":1157,"x_min":83,"x_max":1074,"o":"m 579 -19 q 331 47 444 -19 q 150 227 217 114 q 83 475 83 340 q 150 724 83 610 q 331 904 217 838 q 579 971 444 971 q 827 904 714 971 q 1007 724 940 838 q 1074 475 1074 610 q 1007 227 1074 340 q 827 47 940 114 q 579 -19 714 -19 m 579 925 q 353 865 457 925 q 190 701 250 804 q 129 475 129 597 q 190 250 129 353 q 353 87 250 147 q 579 26 457 26 q 804 87 701 26 q 967 250 907 147 q 1028 475 1028 353 q 967 701 1028 597 q 804 865 907 804 q 579 925 701 925 z "},"1":{"ha":381,"x_min":167,"x_max":214,"o":"m 167 926 l 214 976 l 214 0 l 167 0 l 167 926 z "},"2":{"ha":539,"x_min":63,"x_max":476,"o":"m 335 475 q 368 613 368 535 q 327 765 368 694 q 217 876 286 835 q 69 917 149 917 l 63 917 l 63 964 l 69 964 q 241 917 161 964 q 368 789 321 869 q 415 613 415 708 q 378 457 415 525 l 158 47 l 476 47 l 476 0 l 76 0 l 335 475 z "},"3":{"ha":549,"x_min":49,"x_max":465,"o":"m 114 -22 l 114 24 l 121 24 q 269 65 200 24 q 378 177 338 107 q 419 329 419 247 q 391 460 419 401 q 316 558 363 519 q 218 613 269 597 l 347 904 l 49 904 l 49 951 l 419 951 l 282 639 q 415 511 365 593 q 465 331 465 429 q 418 153 465 235 q 292 25 371 72 q 121 -22 213 -22 l 114 -22 z "},"4":{"ha":735,"x_min":21,"x_max":714,"o":"m 517 0 l 469 0 l 469 231 l 21 231 l 517 1013 l 517 278 l 714 278 l 714 231 l 517 231 l 517 0 m 106 278 l 469 278 l 469 856 l 106 278 z "},"5":{"ha":543,"x_min":114,"x_max":467,"o":"m 114 -22 l 114 24 l 121 24 q 269 65 200 24 q 380 176 339 106 q 421 331 421 247 q 380 484 421 414 q 269 595 339 554 q 121 636 200 636 l 114 636 l 114 951 l 461 951 l 461 904 l 161 904 l 161 679 q 317 618 247 668 q 427 492 388 568 q 467 331 467 417 q 419 153 467 235 q 292 25 372 72 q 121 -22 213 -22 l 114 -22 z "},"6":{"ha":694,"x_min":83,"x_max":618,"o":"m 350 515 q 485 479 424 515 q 582 381 546 443 q 618 247 618 319 q 582 114 618 175 q 485 17 546 53 q 350 -19 424 -19 q 217 17 278 -19 q 119 114 156 53 q 83 247 83 175 q 107 358 83 304 l 364 951 l 415 951 l 210 475 q 350 515 275 515 m 350 29 q 460 58 410 29 q 540 138 510 88 q 569 247 569 188 q 540 357 569 307 q 460 437 510 407 q 350 467 410 467 q 240 437 290 467 q 161 357 190 407 q 132 247 132 307 q 161 138 132 188 q 240 58 190 88 q 350 29 290 29 z "},"7":{"ha":525,"x_min":42,"x_max":504,"o":"m 43 0 l 432 904 l 42 904 l 42 951 l 504 951 l 94 0 l 43 0 z "},"8":{"ha":760,"x_min":104,"x_max":656,"o":"m 381 -19 q 242 16 306 -19 q 141 113 178 51 q 104 250 104 175 q 149 394 104 332 q 268 485 194 457 q 155 572 197 513 q 113 710 113 632 q 149 843 113 783 q 246 937 185 903 q 381 971 307 971 q 514 937 453 971 q 611 842 575 903 q 647 710 647 782 q 605 572 647 632 q 492 485 563 513 q 611 395 567 457 q 656 250 656 333 q 619 113 656 175 q 519 16 582 51 q 381 -19 456 -19 m 381 924 q 269 896 319 924 q 190 819 219 868 q 160 710 160 769 q 189 603 160 650 q 269 531 218 557 q 381 506 319 506 q 491 531 440 506 q 571 604 542 557 q 600 710 600 651 q 571 819 600 769 q 491 896 542 868 q 381 924 440 924 m 381 465 q 265 438 318 465 q 182 360 213 410 q 151 250 151 311 q 182 137 151 188 q 265 57 213 86 q 381 28 318 28 q 495 57 443 28 q 578 137 547 86 q 608 250 608 188 q 578 360 608 311 q 495 438 547 410 q 381 465 443 465 z "},"9":{"ha":694,"x_min":76,"x_max":611,"o":"m 344 971 q 478 935 417 971 q 575 838 539 899 q 611 704 611 776 q 588 593 611 647 l 331 0 l 279 0 l 485 476 q 344 436 419 436 q 210 472 271 436 q 113 570 149 508 q 76 704 76 632 q 113 838 76 776 q 210 935 149 899 q 344 971 271 971 m 344 485 q 454 515 404 485 q 533 594 504 544 q 563 704 563 644 q 533 814 563 764 q 454 893 504 864 q 344 922 404 922 q 235 893 285 922 q 155 814 185 864 q 125 704 125 764 q 155 594 125 644 q 235 515 185 544 q 344 485 285 485 z "},"\u0000":{"ha":0,"x_min":0,"x_max":0,"o":""},"\r":{"ha":381,"x_min":0,"x_max":0,"o":""}," ":{"ha":381,"x_min":0,"x_max":0,"o":""},"!":{"ha":404,"x_min":167,"x_max":238,"o":"m 199 242 l 178 760 l 178 951 l 225 951 l 225 760 l 204 242 l 199 242 m 167 143 l 238 143 l 238 0 l 167 0 l 167 143 z "},"\"":{"ha":453,"x_min":114,"x_max":339,"o":"m 114 951 l 185 951 l 185 860 l 114 694 l 114 951 m 268 951 l 339 951 l 339 860 l 268 694 l 268 951 z "},"#":{"ha":735,"x_min":38,"x_max":697,"o":"m 160 268 l 38 268 l 38 315 l 171 315 l 250 636 l 128 636 l 128 683 l 263 683 l 328 951 l 375 951 l 308 683 l 528 683 l 594 951 l 640 951 l 575 683 l 697 683 l 697 636 l 564 636 l 485 315 l 607 315 l 607 268 l 472 268 l 407 0 l 360 0 l 426 268 l 207 268 l 140 0 l 93 0 l 160 268 m 438 315 l 517 636 l 297 636 l 218 315 l 438 315 z "},"$":{"ha":457,"x_min":83,"x_max":374,"o":"m 374 306 q 344 201 374 249 q 263 128 314 153 l 268 0 l 214 0 l 218 113 q 168 107 196 107 q 83 119 119 107 l 83 169 q 123 160 100 164 q 164 156 146 156 q 278 197 232 156 q 324 304 324 238 q 299 389 324 354 q 225 469 275 424 q 142 559 171 518 q 114 661 114 600 q 144 762 114 717 q 221 832 174 807 l 214 951 l 268 951 l 264 847 q 307 853 282 853 q 364 846 333 853 l 364 801 q 314 808 336 808 q 207 767 251 808 q 163 664 163 725 q 187 582 163 617 q 260 503 211 547 q 345 407 317 449 q 374 306 374 365 z "},"%":{"ha":1033,"x_min":63,"x_max":971,"o":"m 269 557 q 166 585 214 557 q 90 660 118 613 q 63 764 63 708 q 90 867 63 819 q 166 943 118 915 q 269 971 214 971 q 373 943 325 971 q 449 867 421 915 q 476 764 476 819 q 449 660 476 708 q 373 585 421 613 q 269 557 325 557 m 289 0 l 699 951 l 746 951 l 336 0 l 289 0 m 269 604 q 381 651 335 604 q 428 764 428 699 q 381 876 428 829 q 269 922 335 922 q 158 876 204 922 q 111 764 111 829 q 158 651 111 699 q 269 604 204 604 m 764 -19 q 660 8 708 -19 q 585 84 613 36 q 557 188 557 132 q 585 291 557 243 q 660 367 613 339 q 764 394 708 394 q 868 367 821 394 q 943 291 915 339 q 971 188 971 243 q 943 84 971 132 q 868 8 915 36 q 764 -19 821 -19 m 764 29 q 877 76 831 29 q 924 188 924 122 q 877 299 924 253 q 764 346 831 346 q 652 299 699 346 q 606 188 606 253 q 652 76 606 122 q 764 29 699 29 z "},"&":{"ha":894,"x_min":83,"x_max":853,"o":"m 853 0 l 797 0 l 701 150 q 572 22 646 64 q 413 -19 499 -19 q 248 25 324 -19 q 128 145 172 69 q 83 310 83 221 q 124 469 83 396 q 236 588 165 543 q 392 638 307 633 l 193 951 l 642 951 l 642 904 l 279 904 l 699 242 l 792 403 l 847 403 l 728 197 l 853 0 m 413 26 q 672 194 574 26 l 419 593 l 413 593 q 272 555 336 593 q 169 451 207 517 q 131 310 131 386 q 169 168 131 233 q 272 65 207 103 q 413 26 336 26 z "},"'":{"ha":299,"x_min":114,"x_max":185,"o":"m 114 951 l 185 951 l 185 860 l 114 694 l 114 951 z "},"(":{"ha":439,"x_min":83,"x_max":397,"o":"m 371 -96 q 160 153 238 4 q 83 475 83 303 q 160 798 83 649 q 371 1046 238 947 l 397 1013 q 199 778 272 919 q 126 475 126 638 q 199 173 126 314 q 397 -61 272 32 l 371 -96 z "},")":{"ha":439,"x_min":42,"x_max":356,"o":"m 42 -61 q 240 173 167 32 q 313 475 313 314 q 240 778 313 638 q 42 1013 167 919 l 68 1046 q 278 797 201 947 q 356 475 356 647 q 278 153 356 303 q 68 -96 201 4 l 42 -61 z "},"*":{"ha":519,"x_min":42,"x_max":478,"o":"m 224 714 l 42 813 l 65 853 l 242 744 l 236 951 l 283 951 l 278 744 l 453 853 l 476 811 l 296 714 l 478 615 l 454 574 l 278 682 l 283 475 l 236 475 l 242 683 l 65 574 l 42 614 l 224 714 z "},"+":{"ha":768,"x_min":28,"x_max":740,"o":"m 406 119 l 363 119 l 363 454 l 28 454 l 28 497 l 363 497 l 363 832 l 406 832 l 406 497 l 740 497 l 740 454 l 406 454 l 406 119 z "},",":{"ha":299,"x_min":114,"x_max":185,"o":"m 114 143 l 185 143 l 185 53 l 114 -112 l 114 143 z "},"-":{"ha":424,"x_min":28,"x_max":396,"o":"m 28 315 l 396 315 l 396 272 l 28 272 l 28 315 z "},".":{"ha":299,"x_min":114,"x_max":185,"o":"m 114 143 l 185 143 l 185 0 l 114 0 l 114 143 z "},"/":{"ha":567,"x_min":21,"x_max":546,"o":"m 21 -78 l 506 1046 l 546 1029 l 60 -96 l 21 -78 z "},":":{"ha":299,"x_min":114,"x_max":185,"o":"m 114 588 l 185 588 l 185 443 l 114 443 l 114 588 m 114 143 l 185 143 l 185 0 l 114 0 l 114 143 z "},";":{"ha":300,"x_min":114,"x_max":186,"o":"m 115 588 l 186 588 l 186 443 l 115 443 l 115 588 m 114 143 l 185 143 l 185 53 l 114 -112 l 114 143 z "},"<":{"ha":557,"x_min":47,"x_max":463,"o":"m 108 475 l 463 122 l 432 92 l 47 475 l 432 860 l 463 829 l 108 475 z "},"=":{"ha":768,"x_min":28,"x_max":740,"o":"m 28 669 l 740 669 l 740 626 l 28 626 l 28 669 m 28 325 l 740 325 l 740 282 l 28 282 l 28 325 z "},">":{"ha":557,"x_min":94,"x_max":510,"o":"m 510 475 l 125 92 l 94 122 l 449 475 l 94 829 l 125 860 l 510 475 z "},"?":{"ha":526,"x_min":114,"x_max":436,"o":"m 114 371 q 253 408 189 371 q 354 510 317 446 q 392 649 392 574 q 354 788 392 724 q 253 889 317 851 q 114 926 189 926 l 114 971 q 276 928 201 971 q 393 810 350 885 q 436 649 436 736 q 393 487 436 561 q 276 369 350 413 q 114 326 201 326 l 114 371 m 114 143 l 185 143 l 185 0 l 114 0 l 114 143 z "},"@":{"ha":1157,"x_min":83,"x_max":1074,"o":"m 846 56 q 808 53 821 53 l 808 200 q 716 92 776 131 q 579 53 656 53 q 441 90 504 53 q 340 190 378 126 q 303 328 303 253 q 340 466 303 403 q 441 567 378 529 q 579 604 504 604 q 716 565 656 604 q 808 457 776 526 l 808 588 l 854 588 l 854 107 q 981 208 935 129 q 1028 376 1028 288 q 970 590 1028 500 q 814 728 913 681 q 593 776 715 776 q 365 716 472 776 q 194 553 258 656 q 131 328 131 450 q 191 103 131 206 q 354 -59 251 1 q 579 -119 457 -119 l 579 -167 q 331 -100 444 -167 q 150 80 217 -33 q 83 328 83 193 q 153 576 83 463 q 341 757 224 690 q 592 824 458 824 q 836 769 726 824 q 1010 611 946 714 q 1074 372 1074 508 q 1046 233 1074 301 q 966 115 1018 164 q 846 56 914 67 m 808 329 q 778 444 808 392 q 694 528 747 497 q 579 558 642 558 q 464 527 517 558 q 380 443 411 496 q 349 328 349 390 q 380 213 349 265 q 464 128 411 160 q 579 97 517 97 q 693 128 640 97 q 777 211 746 158 q 808 326 808 264 l 808 329 z "},"A":{"ha":794,"x_min":21,"x_max":774,"o":"m 142 176 l 75 0 l 21 0 l 397 981 l 774 0 l 719 0 l 653 176 l 142 176 m 639 215 l 397 853 l 156 215 l 639 215 z "},"B":{"ha":663,"x_min":167,"x_max":538,"o":"m 167 0 l 167 951 l 261 951 q 388 919 331 951 q 478 829 446 886 q 511 701 511 772 q 469 564 511 622 q 356 481 426 506 q 488 399 438 460 q 538 250 538 338 q 504 122 538 179 q 413 33 471 65 q 283 0 354 0 l 167 0 m 214 904 l 214 500 l 272 500 q 367 528 324 500 q 435 602 410 556 q 460 701 460 649 q 433 803 460 757 q 359 877 406 850 q 258 904 313 904 l 214 904 m 214 453 l 214 47 l 283 47 q 385 74 339 47 q 459 148 432 101 q 486 250 486 194 q 459 352 486 306 q 385 426 432 399 q 283 453 339 453 l 214 453 z "},"C":{"ha":971,"x_min":83,"x_max":929,"o":"m 929 125 q 769 19 860 57 q 579 -19 679 -19 q 331 47 444 -19 q 150 227 217 114 q 83 475 83 340 q 150 724 83 610 q 331 904 217 838 q 579 971 444 971 q 769 933 679 971 q 929 825 860 894 l 896 793 q 751 890 833 856 q 579 925 669 925 q 353 865 457 925 q 190 701 250 804 q 129 475 129 597 q 190 250 129 353 q 353 87 250 147 q 579 26 457 26 q 753 61 671 26 q 896 158 835 96 l 929 125 z "},"D":{"ha":825,"x_min":167,"x_max":742,"o":"m 167 951 l 267 951 q 505 888 396 951 q 678 714 614 824 q 742 475 742 604 q 678 237 742 346 q 505 64 614 128 q 267 0 396 0 l 167 0 l 167 951 m 267 47 q 481 105 383 47 q 637 260 579 163 q 694 475 694 358 q 637 690 694 592 q 481 847 579 789 q 267 904 383 904 l 214 904 l 214 47 l 267 47 z "},"E":{"ha":643,"x_min":167,"x_max":532,"o":"m 167 951 l 532 951 l 532 904 l 214 904 l 214 500 l 532 500 l 532 453 l 214 453 l 214 47 l 532 47 l 532 0 l 167 0 l 167 951 z "},"F":{"ha":622,"x_min":167,"x_max":532,"o":"m 214 0 l 167 0 l 167 951 l 532 951 l 532 904 l 214 904 l 214 500 l 532 500 l 532 453 l 214 453 l 214 0 z "},"G":{"ha":1074,"x_min":83,"x_max":1053,"o":"m 1053 335 q 951 150 1022 231 q 784 25 881 69 q 579 -19 688 -19 q 331 47 444 -19 q 150 227 217 114 q 83 475 83 340 q 150 724 83 610 q 331 904 217 838 q 579 971 444 971 q 768 933 676 971 q 929 825 860 894 l 896 793 q 749 890 832 856 q 579 925 667 925 q 353 865 457 925 q 190 701 250 804 q 129 475 129 597 q 190 250 129 353 q 353 87 250 147 q 579 26 457 26 q 824 98 715 26 q 988 288 933 169 l 572 288 l 572 335 l 1053 335 z "},"H":{"ha":790,"x_min":167,"x_max":624,"o":"m 576 453 l 214 453 l 214 0 l 167 0 l 167 951 l 214 951 l 214 500 l 576 500 l 576 951 l 624 951 l 624 0 l 576 0 l 576 453 z "},"I":{"ha":381,"x_min":167,"x_max":214,"o":"m 167 951 l 214 951 l 214 0 l 167 0 l 167 951 z "},"J":{"ha":478,"x_min":21,"x_max":311,"o":"m 311 246 q 277 106 311 164 q 185 17 243 47 q 57 -14 128 -14 q 21 -8 33 -14 l 21 43 q 57 36 33 36 q 206 92 147 36 q 264 246 264 149 l 264 951 l 311 951 l 311 246 z "},"K":{"ha":579,"x_min":167,"x_max":558,"o":"m 222 464 l 214 450 l 214 0 l 167 0 l 167 951 l 214 951 l 214 542 l 456 951 l 515 951 l 251 514 l 558 0 l 500 0 l 222 464 z "},"L":{"ha":553,"x_min":167,"x_max":532,"o":"m 167 951 l 214 951 l 214 47 l 532 47 l 532 0 l 167 0 l 167 951 z "},"M":{"ha":939,"x_min":167,"x_max":772,"o":"m 725 835 l 469 488 l 214 835 l 214 0 l 167 0 l 167 978 l 469 567 l 772 978 l 772 0 l 725 0 l 725 835 z "},"N":{"ha":831,"x_min":167,"x_max":664,"o":"m 214 0 l 167 0 l 167 978 l 617 156 l 617 951 l 664 951 l 664 -26 l 214 789 l 214 0 z "},"O":{"ha":1157,"x_min":83,"x_max":1074,"o":"m 579 -19 q 331 47 444 -19 q 150 227 217 114 q 83 475 83 340 q 150 724 83 610 q 331 904 217 838 q 579 971 444 971 q 827 904 714 971 q 1007 724 940 838 q 1074 475 1074 610 q 1007 227 1074 340 q 827 47 940 114 q 579 -19 714 -19 m 579 26 q 804 87 701 26 q 967 250 907 147 q 1028 475 1028 353 q 967 701 1028 597 q 804 865 907 804 q 579 925 701 925 q 353 865 457 925 q 190 701 250 804 q 129 475 129 597 q 190 250 129 353 q 353 87 250 147 q 579 26 457 26 z "},"P":{"ha":685,"x_min":167,"x_max":594,"o":"m 214 293 l 214 0 l 167 0 l 167 951 l 265 951 q 430 907 354 951 q 550 787 506 863 q 594 622 594 711 q 550 458 594 533 q 430 338 506 382 q 265 293 354 293 l 214 293 m 214 904 l 214 340 l 265 340 q 406 378 342 340 q 509 481 471 417 q 547 622 547 546 q 509 763 547 699 q 406 866 471 828 q 265 904 342 904 l 214 904 z "},"Q":{"ha":1157,"x_min":83,"x_max":1085,"o":"m 911 108 q 759 14 844 47 q 579 -19 674 -19 q 331 47 444 -19 q 150 227 217 114 q 83 475 83 340 q 150 724 83 610 q 331 904 217 838 q 579 971 444 971 q 827 904 714 971 q 1007 724 940 838 q 1074 475 1074 610 q 1040 295 1074 381 q 944 142 1006 210 l 1085 1 l 1051 -32 l 911 108 m 579 925 q 353 865 457 925 q 190 701 250 804 q 129 475 129 597 q 190 250 129 353 q 353 87 250 147 q 579 26 457 26 q 804 87 701 26 q 967 250 907 147 q 1028 475 1028 353 q 967 701 1028 597 q 804 865 907 804 q 579 925 701 925 z "},"R":{"ha":721,"x_min":167,"x_max":596,"o":"m 539 0 l 475 0 l 214 297 l 214 0 l 167 0 l 167 951 l 267 951 q 431 907 356 951 q 551 787 507 863 q 596 622 596 711 q 554 461 596 535 q 441 342 513 388 q 283 293 369 297 l 539 0 m 214 904 l 214 340 l 267 340 q 408 378 343 340 q 510 481 472 417 q 549 622 549 546 q 510 763 549 699 q 408 866 472 828 q 267 904 343 904 l 214 904 z "},"S":{"ha":499,"x_min":104,"x_max":394,"o":"m 140 -14 q 104 -8 119 -14 l 104 42 q 140 36 122 36 q 290 97 233 36 q 346 250 346 157 q 321 360 346 314 q 244 471 296 407 q 163 589 190 536 q 135 717 135 642 q 166 845 135 789 q 253 933 197 901 q 378 964 308 964 l 385 964 l 385 915 l 378 915 q 239 860 294 915 q 183 718 183 804 q 208 607 183 654 q 285 496 233 560 q 367 375 339 429 q 394 244 394 321 q 363 110 394 169 q 273 19 331 51 q 140 -14 215 -14 z "},"T":{"ha":549,"x_min":21,"x_max":528,"o":"m 294 0 l 247 0 l 247 904 l 21 904 l 21 951 l 528 951 l 528 904 l 294 904 l 294 0 z "},"U":{"ha":838,"x_min":167,"x_max":671,"o":"m 418 -12 q 292 22 350 -12 q 201 113 235 56 q 167 239 167 171 l 167 951 l 214 951 l 214 239 q 242 136 214 183 q 316 61 269 89 q 418 33 363 33 q 521 61 474 33 q 596 136 568 89 q 624 239 624 183 l 624 951 l 671 951 l 671 239 q 637 113 671 171 q 544 22 603 56 q 418 -12 486 -12 z "},"V":{"ha":794,"x_min":21,"x_max":774,"o":"m 774 951 l 397 -29 l 21 951 l 72 951 l 397 97 l 722 951 l 774 951 z "},"W":{"ha":1136,"x_min":21,"x_max":1115,"o":"m 568 794 l 335 -29 l 21 951 l 72 951 l 332 126 l 565 951 l 571 951 l 804 126 l 1064 951 l 1115 951 l 801 -29 l 568 794 z "},"X":{"ha":721,"x_min":42,"x_max":679,"o":"m 361 438 l 96 0 l 42 0 l 333 482 l 50 951 l 106 951 l 361 528 l 617 951 l 671 951 l 388 482 l 679 0 l 625 0 l 361 438 z "},"Y":{"ha":776,"x_min":21,"x_max":756,"o":"m 411 0 l 364 0 l 364 382 l 21 951 l 76 951 l 389 433 l 700 951 l 756 951 l 411 381 l 411 0 z "},"Z":{"ha":601,"x_min":51,"x_max":550,"o":"m 475 904 l 64 904 l 64 951 l 550 951 l 126 47 l 550 47 l 550 0 l 51 0 l 475 904 z "},"[":{"ha":446,"x_min":167,"x_max":404,"o":"m 167 1028 l 404 1028 l 404 985 l 210 985 l 210 -33 l 404 -33 l 404 -76 l 167 -76 l 167 1028 z "},"\\":{"ha":567,"x_min":21,"x_max":546,"o":"m 60 1046 l 546 -78 l 506 -96 l 21 1029 l 60 1046 z "},"]":{"ha":446,"x_min":42,"x_max":279,"o":"m 42 -33 l 236 -33 l 236 985 l 42 985 l 42 1028 l 279 1028 l 279 -76 l 42 -76 l 42 -33 z "},"^":{"ha":463,"x_min":42,"x_max":421,"o":"m 231 971 l 421 781 l 390 751 l 231 910 l 72 751 l 42 781 l 231 971 z "},"_":{"ha":768,"x_min":28,"x_max":740,"o":"m 28 -103 l 740 -103 l 740 -146 l 28 -146 l 28 -103 z "},"`":{"ha":303,"x_min":42,"x_max":261,"o":"m 42 860 l 72 890 l 261 700 l 231 671 l 42 860 z "},"a":{"ha":729,"x_min":69,"x_max":618,"o":"m 571 43 q 383 -19 486 -19 q 226 22 297 -19 q 112 136 154 64 q 69 293 69 208 q 112 450 69 378 q 226 565 154 522 q 383 607 299 607 q 571 543 485 607 l 571 588 l 618 588 l 618 0 l 571 0 l 571 43 m 571 482 q 484 539 532 518 q 383 560 436 560 q 250 524 311 560 q 153 426 189 488 q 117 293 117 365 q 153 160 117 221 q 250 64 189 100 q 383 28 311 28 q 484 49 436 28 q 571 106 532 69 l 571 482 z "},"b":{"ha":729,"x_min":111,"x_max":660,"o":"m 158 543 q 346 607 242 607 q 503 565 432 607 q 617 451 575 524 q 660 294 660 379 q 617 138 660 210 q 503 23 575 65 q 346 -19 431 -19 q 158 44 242 -19 l 158 0 l 111 0 l 111 951 l 158 951 l 158 543 m 158 106 q 245 49 197 69 q 346 28 293 28 q 479 64 418 28 q 576 161 540 100 q 613 294 613 222 q 576 427 613 367 q 479 524 540 488 q 346 560 418 560 q 245 539 293 560 q 158 482 197 518 l 158 106 z "},"c":{"ha":660,"x_min":69,"x_max":604,"o":"m 604 72 q 504 5 561 29 q 383 -19 447 -19 q 226 22 297 -19 q 112 136 154 64 q 69 293 69 208 q 112 450 69 378 q 226 565 154 522 q 383 607 299 607 q 503 583 446 607 q 604 514 560 558 l 571 482 q 484 539 532 518 q 383 560 436 560 q 250 524 311 560 q 153 426 189 488 q 117 293 117 365 q 153 160 117 221 q 250 64 189 100 q 383 28 311 28 q 484 49 436 28 q 571 106 532 69 l 604 72 z "},"d":{"ha":729,"x_min":69,"x_max":618,"o":"m 571 43 q 383 -19 486 -19 q 226 22 297 -19 q 112 136 154 64 q 69 293 69 208 q 112 450 69 378 q 226 565 154 522 q 383 607 299 607 q 571 543 485 607 l 571 951 l 618 951 l 618 0 l 571 0 l 571 43 m 571 482 q 484 539 532 518 q 383 560 436 560 q 250 524 311 560 q 153 426 189 488 q 117 293 117 365 q 153 160 117 221 q 250 64 189 100 q 383 28 311 28 q 484 49 436 28 q 571 106 532 69 l 571 482 z "},"e":{"ha":760,"x_min":69,"x_max":697,"o":"m 604 72 q 504 5 561 29 q 383 -19 447 -19 q 226 22 297 -19 q 112 136 154 64 q 69 293 69 208 q 112 450 69 378 q 226 565 154 522 q 383 607 299 607 q 533 569 464 607 q 646 461 603 531 q 696 301 689 392 q 697 269 697 290 l 117 269 q 160 147 122 203 q 256 60 197 92 q 383 28 315 28 q 484 49 436 28 q 571 106 532 69 l 604 72 m 649 317 q 606 439 643 383 q 510 527 568 494 q 383 560 451 560 q 256 527 315 560 q 160 439 197 494 q 117 317 122 383 l 649 317 z "},"f":{"ha":344,"x_min":49,"x_max":310,"o":"m 196 540 l 196 0 l 149 0 l 149 540 l 49 540 l 49 588 l 149 588 l 149 807 q 190 914 149 875 q 293 953 232 953 q 310 951 303 953 l 310 901 l 293 903 q 224 876 251 903 q 196 807 196 850 l 196 588 l 310 588 l 310 540 l 196 540 z "},"g":{"ha":729,"x_min":69,"x_max":618,"o":"m 618 -4 q 583 -151 618 -90 q 488 -244 547 -212 q 354 -276 428 -276 q 315 -274 328 -276 l 315 -226 q 354 -229 335 -229 q 510 -167 449 -229 q 571 -4 571 -106 l 571 43 q 383 -19 486 -19 q 226 22 297 -19 q 112 136 154 64 q 69 293 69 208 q 112 450 69 378 q 226 565 154 522 q 383 607 299 607 q 571 543 485 607 l 571 588 l 618 588 l 618 -4 m 571 482 q 484 539 532 518 q 383 560 436 560 q 250 524 311 560 q 153 426 189 488 q 117 293 117 365 q 153 160 117 221 q 250 64 189 100 q 383 28 311 28 q 484 49 436 28 q 571 106 532 69 l 571 482 z "},"h":{"ha":599,"x_min":111,"x_max":488,"o":"m 158 539 q 220 588 182 569 q 308 607 258 607 q 436 554 385 607 q 488 413 488 501 l 488 0 l 440 0 l 440 413 q 402 521 440 482 q 308 560 364 560 q 218 535 258 560 q 158 468 178 510 l 158 0 l 111 0 l 111 951 l 158 951 l 158 539 z "},"i":{"ha":269,"x_min":111,"x_max":158,"o":"m 111 838 l 158 838 l 158 718 l 111 718 l 111 838 m 111 588 l 158 588 l 158 0 l 111 0 l 111 588 z "},"j":{"ha":269,"x_min":0,"x_max":158,"o":"m 111 838 l 158 838 l 158 718 l 111 718 l 111 838 m 158 -131 q 118 -237 158 -199 q 17 -276 78 -276 q 0 -275 7 -276 l 0 -225 l 17 -226 q 85 -201 58 -226 q 111 -131 111 -175 l 111 588 l 158 588 l 158 -131 z "},"k":{"ha":475,"x_min":111,"x_max":433,"o":"m 174 264 l 158 243 l 158 0 l 111 0 l 111 951 l 158 951 l 158 324 l 354 588 l 418 588 l 204 304 l 433 0 l 369 0 l 174 264 z "},"l":{"ha":269,"x_min":111,"x_max":158,"o":"m 111 951 l 158 951 l 158 0 l 111 0 l 111 951 z "},"m":{"ha":928,"x_min":111,"x_max":817,"o":"m 308 560 q 218 535 258 560 q 158 468 178 510 l 158 0 l 111 0 l 111 588 l 158 588 l 158 539 q 220 588 182 569 q 308 607 258 607 q 401 581 360 607 q 467 510 443 556 q 535 581 489 554 q 638 607 582 607 q 765 554 714 607 q 817 413 817 501 l 817 0 l 769 0 l 769 413 q 731 521 769 482 q 638 560 693 560 q 542 531 585 560 q 483 458 500 503 q 488 413 488 438 l 488 0 l 440 0 l 440 413 q 402 521 440 482 q 308 560 364 560 z "},"n":{"ha":599,"x_min":111,"x_max":488,"o":"m 158 539 q 220 588 182 569 q 308 607 258 607 q 436 554 385 607 q 488 413 488 501 l 488 0 l 440 0 l 440 413 q 402 521 440 482 q 308 560 364 560 q 218 535 258 560 q 158 468 178 510 l 158 0 l 111 0 l 111 588 l 158 588 l 158 539 z "},"o":{"ha":767,"x_min":69,"x_max":697,"o":"m 69 293 q 112 450 69 378 q 226 565 154 522 q 383 607 299 607 q 541 565 469 607 q 655 451 613 524 q 697 294 697 379 q 655 138 697 210 q 540 23 613 65 q 383 -19 468 -19 q 226 22 297 -19 q 112 136 154 64 q 69 293 69 208 m 383 28 q 517 64 456 28 q 614 161 578 100 q 650 294 650 222 q 614 427 650 367 q 517 524 578 488 q 383 560 456 560 q 250 524 311 560 q 153 426 189 488 q 117 293 117 365 q 153 160 117 221 q 250 64 189 100 q 383 28 311 28 z "},"p":{"ha":729,"x_min":111,"x_max":660,"o":"m 158 543 q 346 607 242 607 q 503 565 432 607 q 617 451 575 524 q 660 294 660 379 q 617 138 660 210 q 503 23 575 65 q 346 -19 431 -19 q 158 44 242 -19 l 158 -257 l 111 -257 l 111 588 l 158 588 l 158 543 m 158 106 q 245 49 197 69 q 346 28 293 28 q 479 64 418 28 q 576 161 540 100 q 613 294 613 222 q 576 427 613 367 q 479 524 540 488 q 346 560 418 560 q 245 539 293 560 q 158 482 197 518 l 158 106 z "},"q":{"ha":729,"x_min":69,"x_max":618,"o":"m 571 43 q 383 -19 486 -19 q 226 22 297 -19 q 112 136 154 64 q 69 293 69 208 q 112 450 69 378 q 226 565 154 522 q 383 607 299 607 q 571 543 485 607 l 571 588 l 618 588 l 618 -257 l 571 -257 l 571 43 m 571 482 q 484 539 532 518 q 383 560 436 560 q 250 524 311 560 q 153 426 189 488 q 117 293 117 365 q 153 160 117 221 q 250 64 189 100 q 383 28 311 28 q 484 49 436 28 q 571 106 532 69 l 571 482 z "},"r":{"ha":322,"x_min":111,"x_max":308,"o":"m 304 560 q 217 534 258 560 q 158 468 176 508 l 158 0 l 111 0 l 111 588 l 158 588 l 158 539 q 220 588 182 569 q 308 607 258 607 l 308 560 l 304 560 z "},"s":{"ha":322,"x_min":69,"x_max":253,"o":"m 92 -14 q 69 -11 78 -14 l 69 36 q 92 33 78 33 q 174 67 143 33 q 206 153 206 101 q 190 219 206 190 q 143 288 175 247 q 91 366 108 332 q 74 447 74 400 q 117 560 74 517 q 228 604 161 604 l 232 604 l 232 558 l 228 558 q 151 528 182 558 q 121 449 121 497 q 136 383 121 411 q 182 315 151 356 q 235 235 218 269 q 253 153 253 201 q 208 33 253 81 q 92 -14 163 -14 z "},"t":{"ha":344,"x_min":49,"x_max":310,"o":"m 196 540 l 196 0 l 149 0 l 149 540 l 49 540 l 49 588 l 149 588 l 149 807 l 196 835 l 196 588 l 310 588 l 310 540 l 196 540 z "},"u":{"ha":599,"x_min":111,"x_max":488,"o":"m 440 47 q 378 -1 417 17 q 290 -19 339 -19 q 163 33 214 -19 q 111 175 111 86 l 111 588 l 158 588 l 158 175 q 197 67 158 106 q 290 28 235 28 q 380 53 339 28 q 440 118 421 78 l 440 588 l 488 588 l 488 0 l 440 0 l 440 47 z "},"v":{"ha":503,"x_min":14,"x_max":489,"o":"m 14 588 l 65 588 l 251 97 l 438 588 l 489 588 l 251 -29 l 14 588 z "},"w":{"ha":814,"x_min":14,"x_max":800,"o":"m 749 588 l 800 588 l 563 -29 l 407 446 l 251 -29 l 14 588 l 65 588 l 249 107 l 406 588 l 408 588 l 565 107 l 749 588 z "},"x":{"ha":501,"x_min":42,"x_max":460,"o":"m 251 256 l 96 0 l 42 0 l 224 300 l 50 588 l 106 588 l 251 346 l 397 588 l 451 588 l 278 300 l 460 0 l 406 0 l 251 256 z "},"y":{"ha":503,"x_min":14,"x_max":489,"o":"m 65 588 l 251 97 l 438 588 l 489 588 l 165 -257 l 114 -257 l 228 35 l 14 588 l 65 588 z "},"z":{"ha":468,"x_min":46,"x_max":422,"o":"m 340 540 l 58 540 l 58 588 l 422 588 l 126 47 l 422 47 l 422 0 l 46 0 l 340 540 z "},"{":{"ha":515,"x_min":42,"x_max":474,"o":"m 236 260 q 210 356 236 313 q 142 426 185 400 q 49 451 99 451 l 42 451 l 42 494 l 49 494 q 142 520 99 494 q 210 590 185 546 q 236 686 236 633 l 236 794 q 267 915 236 860 q 352 1001 299 969 q 467 1033 406 1033 l 474 1033 l 474 990 l 467 990 q 374 964 417 990 q 305 892 331 938 q 279 794 279 847 l 279 686 q 235 552 279 610 q 119 472 190 494 q 235 394 190 451 q 279 260 279 338 l 279 150 q 305 53 279 97 q 374 -18 331 8 q 467 -44 417 -44 l 474 -44 l 474 -87 l 467 -87 q 352 -56 406 -87 q 267 31 299 -24 q 236 150 236 86 l 236 260 z "},"|":{"ha":376,"x_min":167,"x_max":210,"o":"m 167 1028 l 210 1028 l 210 -76 l 167 -76 l 167 1028 z "},"}":{"ha":515,"x_min":42,"x_max":474,"o":"m 42 -44 l 49 -44 q 142 -18 99 -44 q 210 53 185 8 q 236 151 236 99 l 236 260 q 281 394 236 336 q 396 474 325 451 q 281 551 325 494 q 236 686 236 608 l 236 796 q 210 893 236 849 q 142 964 185 938 q 49 990 99 990 l 42 990 l 42 1033 l 49 1033 q 163 1001 110 1033 q 248 915 217 969 q 279 796 279 860 l 279 686 q 305 590 279 633 q 374 520 331 546 q 467 494 417 494 l 474 494 l 474 451 l 467 451 q 374 426 417 451 q 305 356 331 400 q 279 260 279 313 l 279 151 q 248 31 279 86 q 163 -56 217 -24 q 49 -87 110 -87 l 42 -87 l 42 -44 z "},"~":{"ha":529,"x_min":42,"x_max":488,"o":"m 361 408 q 304 421 328 408 q 251 458 281 433 q 209 488 228 478 q 168 499 190 499 q 108 475 131 499 q 85 414 85 451 l 42 414 l 42 418 q 77 506 42 471 q 168 542 113 542 q 224 529 201 542 q 278 492 247 517 q 320 462 301 472 q 361 451 339 451 q 422 476 399 451 q 444 538 444 500 l 488 538 l 488 533 q 452 444 488 479 q 361 408 417 408 z "}," ":{"ha":381,"x_min":0,"x_max":0,"o":""},"¡":{"ha":404,"x_min":167,"x_max":238,"o":"m 238 444 l 167 444 l 167 588 l 238 588 l 238 444 m 206 346 l 226 -42 l 226 -233 l 179 -233 l 179 -42 l 200 346 l 206 346 z "},"¢":{"ha":768,"x_min":83,"x_max":726,"o":"m 433 100 q 256 159 336 107 q 130 294 176 211 q 83 475 83 378 q 130 656 83 572 q 257 792 176 740 q 435 851 338 844 l 428 951 l 483 951 l 479 851 q 613 820 549 849 q 726 742 678 792 l 694 710 q 586 781 647 756 q 460 807 525 807 q 294 763 371 807 q 174 642 218 718 q 129 475 129 565 q 174 310 129 386 q 294 189 218 233 q 460 144 371 144 q 588 169 526 144 q 694 242 649 194 l 726 208 q 613 131 678 160 q 479 99 549 103 l 483 0 l 428 0 l 433 100 z "},"£":{"ha":654,"x_min":83,"x_max":571,"o":"m 571 451 l 382 451 q 438 356 418 403 q 457 249 457 310 q 428 126 457 181 q 338 47 399 72 l 571 47 l 571 0 l 83 0 l 83 47 l 203 47 q 351 101 293 47 q 408 249 408 154 q 386 355 408 310 q 322 451 364 400 l 83 451 l 83 499 l 283 499 q 221 600 243 550 q 199 719 199 650 q 229 844 199 789 q 315 932 260 900 q 442 964 371 964 l 449 964 l 449 915 l 442 915 q 303 861 360 915 q 247 719 247 807 q 272 606 247 654 q 344 499 297 557 l 571 499 l 571 451 z "},"¤":{"ha":767,"x_min":69,"x_max":697,"o":"m 72 742 l 103 772 l 172 707 q 269 767 215 746 q 383 789 324 789 q 497 767 443 789 q 594 707 551 746 l 664 772 l 694 742 l 625 675 q 697 475 697 590 q 625 275 697 360 l 694 208 l 664 178 l 594 243 q 497 183 551 204 q 383 161 443 161 q 269 183 324 161 q 172 243 215 204 l 103 178 l 72 208 l 142 275 q 69 475 69 360 q 142 675 69 590 l 72 742 m 383 208 q 517 244 456 208 q 614 342 578 281 q 650 475 650 403 q 614 608 650 547 q 517 706 578 669 q 383 742 456 742 q 250 706 311 742 q 153 608 189 669 q 117 475 117 547 q 153 342 117 403 q 250 244 189 281 q 383 208 311 208 z "},"¥":{"ha":776,"x_min":19,"x_max":757,"o":"m 292 499 l 19 951 l 75 951 l 389 433 l 701 951 l 757 951 l 483 499 l 715 499 l 715 451 l 454 451 l 411 379 l 411 242 l 715 242 l 715 194 l 411 194 l 411 0 l 364 0 l 364 194 l 61 194 l 61 242 l 364 242 l 364 381 l 321 451 l 61 451 l 61 499 l 292 499 z "},"¦":{"ha":376,"x_min":167,"x_max":210,"o":"m 167 1028 l 210 1028 l 210 618 l 167 618 l 167 1028 m 167 333 l 210 333 l 210 -76 l 167 -76 l 167 333 z "},"§":{"ha":556,"x_min":83,"x_max":472,"o":"m 232 742 q 204 856 204 794 q 274 1021 204 951 l 338 1021 q 272 949 297 992 q 246 854 246 906 q 272 753 246 794 q 353 656 299 711 q 416 586 393 615 q 456 517 439 557 q 472 425 472 476 q 434 297 472 356 q 322 207 396 239 q 351 93 351 153 q 282 -72 351 -3 l 218 -72 q 284 0 258 -43 q 310 94 310 43 q 283 196 310 154 q 203 293 257 238 q 140 363 163 333 q 100 432 117 392 q 83 524 83 472 q 121 651 83 593 q 232 742 158 708 m 235 318 q 300 243 272 281 q 395 315 361 268 q 429 426 429 363 q 403 527 429 485 q 322 626 376 569 q 254 706 281 671 q 160 633 193 681 q 126 522 126 586 q 154 417 126 463 q 235 318 182 371 z "},"¨":{"ha":385,"x_min":42,"x_max":343,"o":"m 85 819 q 115 807 103 819 q 128 776 128 794 q 115 746 128 758 q 85 733 103 733 q 54 746 67 733 q 42 776 42 758 q 54 807 42 794 q 85 819 67 819 m 300 819 q 331 807 318 819 q 343 776 343 794 q 331 746 343 758 q 300 733 318 733 q 269 746 282 733 q 257 776 257 758 q 269 807 257 794 q 300 819 282 819 z "},"©":{"ha":1157,"x_min":83,"x_max":1074,"o":"m 579 -19 q 331 47 444 -19 q 150 227 217 114 q 83 475 83 340 q 150 724 83 610 q 331 904 217 838 q 579 971 444 971 q 827 904 714 971 q 1007 724 940 838 q 1074 475 1074 610 q 1007 227 1074 340 q 827 47 940 114 q 579 -19 714 -19 m 579 18 q 808 80 703 18 q 974 247 913 142 q 1036 475 1036 351 q 974 704 1036 599 q 808 872 913 810 q 579 933 703 933 q 349 872 454 933 q 183 705 244 810 q 121 475 121 600 q 183 247 121 351 q 350 80 244 142 q 579 18 456 18 m 792 263 q 694 197 749 219 q 579 174 639 174 q 428 215 497 174 q 318 324 358 256 q 278 475 278 393 q 318 626 278 557 q 428 736 358 696 q 579 776 497 776 q 694 754 640 776 q 792 689 749 732 l 756 651 q 674 706 719 688 q 579 725 629 725 q 453 691 511 725 q 363 600 396 657 q 329 475 329 543 q 363 350 329 407 q 453 260 396 293 q 579 226 511 226 q 675 245 629 226 q 756 299 721 264 l 792 263 z "},"ª":{"ha":658,"x_min":69,"x_max":547,"o":"m 501 439 l 501 475 q 343 422 431 422 q 206 459 268 422 q 106 558 143 496 q 69 696 69 621 q 106 833 69 769 q 206 933 143 896 q 343 969 268 969 q 501 915 429 969 l 501 951 l 547 951 l 547 439 l 501 439 m 501 863 q 343 925 432 925 q 228 894 281 925 q 146 811 176 864 q 115 696 115 758 q 146 581 115 633 q 228 499 176 529 q 343 468 281 468 q 501 531 435 468 l 501 863 m 111 210 l 547 210 l 547 167 l 111 167 l 111 210 z "},"«":{"ha":542,"x_min":42,"x_max":500,"o":"m 42 294 l 221 585 l 271 585 l 93 294 l 271 4 l 221 4 l 42 294 m 271 294 l 450 585 l 500 585 l 322 294 l 500 4 l 450 4 l 271 294 z "},"­":{"ha":424,"x_min":28,"x_max":396,"o":"m 28 315 l 396 315 l 396 272 l 28 272 l 28 315 z "},"®":{"ha":635,"x_min":63,"x_max":572,"o":"m 318 464 q 190 499 249 464 q 97 592 131 533 q 63 719 63 650 q 97 847 63 789 q 190 940 131 906 q 318 974 249 974 q 446 940 388 974 q 538 847 504 906 q 572 719 572 789 q 538 592 572 650 q 446 499 504 533 q 318 464 388 464 m 318 493 q 431 524 379 493 q 513 606 482 554 q 543 719 543 658 q 513 832 543 781 q 431 914 482 883 q 318 944 379 944 q 205 914 257 944 q 122 832 153 883 q 92 719 92 781 q 122 606 92 658 q 205 524 153 554 q 318 493 257 493 m 390 579 l 343 579 l 286 644 l 286 579 l 250 579 l 250 868 l 289 868 q 363 838 332 868 q 393 765 393 808 q 371 701 393 729 q 315 665 349 674 l 390 579 m 286 833 l 286 697 l 289 697 q 337 717 317 697 q 357 765 357 738 q 337 813 357 793 q 289 833 317 833 l 286 833 z "},"¯":{"ha":526,"x_min":42,"x_max":485,"o":"m 42 756 l 42 799 l 485 799 l 485 756 l 42 756 z "},"°":{"ha":428,"x_min":49,"x_max":379,"o":"m 214 640 q 97 689 146 640 q 49 806 49 738 q 97 923 49 875 q 214 971 146 971 q 331 922 282 971 q 379 806 379 874 q 331 689 379 738 q 214 640 282 640 m 214 924 q 131 889 165 924 q 96 806 96 854 q 131 722 96 757 q 214 688 165 688 q 297 722 263 688 q 332 806 332 757 q 297 889 332 854 q 214 924 263 924 z "},"´":{"ha":303,"x_min":42,"x_max":261,"o":"m 231 888 l 261 857 l 72 668 l 42 697 l 231 888 z "},"¶":{"ha":661,"x_min":83,"x_max":494,"o":"m 451 908 l 333 908 l 333 -76 l 290 -76 l 290 538 q 187 565 235 538 q 111 640 139 593 q 83 744 83 688 q 111 848 83 800 q 187 924 139 896 q 290 951 235 951 l 494 951 l 494 -76 l 451 -76 l 451 908 z "},"·":{"ha":299,"x_min":114,"x_max":185,"o":"m 114 364 l 185 364 l 185 221 l 114 221 l 114 364 z "},"¸":{"ha":154,"x_min":43,"x_max":135,"o":"m 43 -242 q 86 -139 86 -200 q 43 -35 86 -78 l 78 0 q 120 -65 106 -29 q 135 -139 135 -101 q 120 -212 135 -176 q 78 -276 106 -249 l 43 -242 z "},"º":{"ha":686,"x_min":69,"x_max":617,"o":"m 343 969 q 481 933 418 969 q 580 833 543 896 q 617 696 617 771 q 580 559 617 622 q 481 459 543 496 q 343 422 418 422 q 206 459 269 422 q 106 559 143 496 q 69 696 69 622 q 106 833 69 771 q 206 933 143 896 q 343 969 269 969 m 572 696 q 542 811 572 758 q 458 894 511 864 q 343 925 406 925 q 228 894 281 925 q 146 811 176 864 q 115 696 115 758 q 146 581 115 633 q 228 499 176 529 q 343 468 281 468 q 458 499 406 468 q 542 581 511 529 q 572 696 572 633 m 86 167 l 86 210 l 601 210 l 601 167 l 86 167 z "},"»":{"ha":542,"x_min":42,"x_max":500,"o":"m 221 294 l 42 585 l 93 585 l 271 294 l 93 4 l 42 4 l 221 294 m 450 294 l 271 585 l 322 585 l 500 294 l 322 4 l 271 4 l 450 294 z "},"¿":{"ha":494,"x_min":90,"x_max":381,"o":"m 381 443 l 310 443 l 310 588 l 381 588 l 381 443 m 133 33 q 167 -91 133 -35 q 257 -181 200 -147 q 381 -214 314 -214 l 381 -257 q 235 -218 301 -257 q 129 -112 168 -179 q 90 33 90 -46 q 129 179 90 113 q 235 285 168 246 q 381 324 301 324 l 381 282 q 257 249 314 282 q 167 158 200 215 q 133 33 133 100 z "},"À":{"ha":794,"x_min":21,"x_max":774,"o":"m 142 176 l 75 0 l 21 0 l 397 981 l 774 0 l 719 0 l 653 176 l 142 176 m 639 215 l 397 853 l 156 215 l 639 215 m 288 1179 l 318 1210 l 507 1019 l 476 990 l 288 1179 z "},"Á":{"ha":794,"x_min":21,"x_max":774,"o":"m 142 176 l 75 0 l 21 0 l 397 981 l 774 0 l 719 0 l 653 176 l 142 176 m 639 215 l 397 853 l 156 215 l 639 215 m 476 1210 l 507 1179 l 318 990 l 288 1019 l 476 1210 z "},"Â":{"ha":794,"x_min":21,"x_max":774,"o":"m 142 176 l 75 0 l 21 0 l 397 981 l 774 0 l 719 0 l 653 176 l 142 176 m 639 215 l 397 853 l 156 215 l 639 215 m 396 1210 l 586 1019 l 556 990 l 396 1149 l 238 990 l 207 1019 l 396 1210 z "},"Ã":{"ha":794,"x_min":21,"x_max":774,"o":"m 142 176 l 75 0 l 21 0 l 397 981 l 774 0 l 719 0 l 653 176 l 142 176 m 639 215 l 397 853 l 156 215 l 639 215 m 493 1033 q 436 1046 460 1033 q 383 1083 413 1058 q 341 1113 360 1103 q 300 1124 322 1124 q 240 1100 263 1124 q 217 1039 217 1076 l 174 1039 l 174 1043 q 209 1131 174 1096 q 300 1167 244 1167 q 356 1154 333 1167 q 410 1117 379 1142 q 452 1087 433 1097 q 493 1076 471 1076 q 553 1101 531 1076 q 576 1163 576 1125 l 619 1163 l 619 1158 q 584 1069 619 1104 q 493 1033 549 1033 z "},"Ä":{"ha":794,"x_min":21,"x_max":774,"o":"m 142 176 l 75 0 l 21 0 l 397 981 l 774 0 l 719 0 l 653 176 l 142 176 m 639 215 l 397 853 l 156 215 l 639 215 m 289 1143 q 319 1131 307 1143 q 332 1100 332 1118 q 319 1069 332 1082 q 289 1057 307 1057 q 258 1069 271 1057 q 246 1100 246 1082 q 258 1131 246 1118 q 289 1143 271 1143 m 504 1143 q 535 1131 522 1143 q 547 1100 547 1118 q 535 1069 547 1082 q 504 1057 522 1057 q 474 1069 486 1057 q 461 1100 461 1082 q 474 1131 461 1118 q 504 1143 486 1143 z "},"Å":{"ha":794,"x_min":21,"x_max":774,"o":"m 142 176 l 75 0 l 21 0 l 397 981 l 774 0 l 719 0 l 653 176 l 142 176 m 639 215 l 397 853 l 156 215 l 639 215 m 396 985 q 299 1025 339 985 q 258 1122 258 1065 q 299 1219 258 1179 q 396 1260 339 1260 q 493 1219 453 1260 q 533 1122 533 1179 q 493 1025 533 1065 q 396 985 453 985 m 396 1221 q 326 1192 356 1221 q 297 1122 297 1163 q 326 1053 297 1082 q 396 1024 356 1024 q 465 1053 436 1024 q 494 1122 494 1082 q 465 1192 494 1163 q 396 1221 436 1221 z "},"Æ":{"ha":1136,"x_min":21,"x_max":1025,"o":"m 657 951 l 1025 951 l 1025 904 l 706 904 l 706 500 l 1025 500 l 1025 453 l 706 453 l 706 47 l 1025 47 l 1025 0 l 660 0 l 660 176 l 199 176 l 82 0 l 21 0 l 657 951 m 660 871 l 224 215 l 660 215 l 660 871 z "},"Ç":{"ha":971,"x_min":83,"x_max":929,"o":"m 542 -242 q 585 -139 585 -200 q 542 -35 585 -78 l 557 -19 q 319 53 428 -14 q 147 233 211 121 q 83 475 83 344 q 150 724 83 610 q 331 904 217 838 q 579 971 444 971 q 769 933 679 971 q 929 825 860 894 l 896 793 q 751 890 833 856 q 579 925 669 925 q 353 865 457 925 q 190 701 250 804 q 129 475 129 597 q 190 250 129 353 q 353 87 250 147 q 579 26 457 26 q 753 61 671 26 q 896 158 835 96 l 929 125 q 776 22 863 60 q 593 -19 689 -17 q 633 -139 633 -72 q 619 -212 633 -176 q 576 -276 604 -249 l 542 -242 z "},"È":{"ha":643,"x_min":167,"x_max":532,"o":"m 167 951 l 532 951 l 532 904 l 214 904 l 214 500 l 532 500 l 532 453 l 214 453 l 214 47 l 532 47 l 532 0 l 167 0 l 167 951 m 247 1179 l 278 1210 l 467 1019 l 436 990 l 247 1179 z "},"É":{"ha":643,"x_min":167,"x_max":532,"o":"m 167 951 l 532 951 l 532 904 l 214 904 l 214 500 l 532 500 l 532 453 l 214 453 l 214 47 l 532 47 l 532 0 l 167 0 l 167 951 m 432 1210 l 463 1179 l 274 990 l 243 1019 l 432 1210 z "},"Ê":{"ha":643,"x_min":157,"x_max":536,"o":"m 167 951 l 532 951 l 532 904 l 214 904 l 214 500 l 532 500 l 532 453 l 214 453 l 214 47 l 532 47 l 532 0 l 167 0 l 167 951 m 346 1210 l 536 1019 l 506 990 l 346 1149 l 188 990 l 157 1019 l 346 1210 z "},"Ë":{"ha":643,"x_min":167,"x_max":532,"o":"m 167 951 l 532 951 l 532 904 l 214 904 l 214 500 l 532 500 l 532 453 l 214 453 l 214 47 l 532 47 l 532 0 l 167 0 l 167 951 m 242 1143 q 272 1131 260 1143 q 285 1100 285 1118 q 272 1069 285 1082 q 242 1057 260 1057 q 211 1069 224 1057 q 199 1100 199 1082 q 211 1131 199 1118 q 242 1143 224 1143 m 457 1143 q 488 1131 475 1143 q 500 1100 500 1118 q 488 1069 500 1082 q 457 1057 475 1057 q 426 1069 439 1057 q 414 1100 414 1082 q 426 1131 414 1118 q 457 1143 439 1143 z "},"Ì":{"ha":381,"x_min":81,"x_max":300,"o":"m 167 951 l 214 951 l 214 0 l 167 0 l 167 951 m 81 1179 l 111 1210 l 300 1019 l 269 990 l 81 1179 z "},"Í":{"ha":381,"x_min":81,"x_max":300,"o":"m 167 951 l 214 951 l 214 0 l 167 0 l 167 951 m 269 1210 l 300 1179 l 111 990 l 81 1019 l 269 1210 z "},"Î":{"ha":381,"x_min":1,"x_max":381,"o":"m 167 951 l 214 951 l 214 0 l 167 0 l 167 951 m 190 1210 l 381 1019 l 350 990 l 190 1149 l 32 990 l 1 1019 l 190 1210 z "},"Ï":{"ha":381,"x_min":40,"x_max":342,"o":"m 167 951 l 214 951 l 214 0 l 167 0 l 167 951 m 83 1143 q 114 1131 101 1143 q 126 1100 126 1118 q 114 1069 126 1082 q 83 1057 101 1057 q 53 1069 65 1057 q 40 1100 40 1082 q 53 1131 40 1118 q 83 1143 65 1143 m 299 1143 q 329 1131 317 1143 q 342 1100 342 1118 q 329 1069 342 1082 q 299 1057 317 1057 q 268 1069 281 1057 q 256 1100 256 1082 q 268 1131 256 1118 q 299 1143 281 1143 z "},"Ð":{"ha":825,"x_min":42,"x_max":742,"o":"m 167 499 l 167 951 l 267 951 q 505 888 396 951 q 678 714 614 824 q 742 475 742 604 q 678 237 742 346 q 505 64 614 128 q 267 0 396 0 l 167 0 l 167 456 l 42 456 l 42 499 l 167 499 m 214 904 l 214 499 l 451 499 l 451 456 l 214 456 l 214 47 l 267 47 q 481 105 383 47 q 637 260 579 163 q 694 475 694 358 q 637 690 694 592 q 481 847 579 789 q 267 904 383 904 l 214 904 z "},"Ñ":{"ha":831,"x_min":167,"x_max":664,"o":"m 214 0 l 167 0 l 167 978 l 617 156 l 617 951 l 664 951 l 664 -26 l 214 789 l 214 0 m 511 1033 q 454 1046 478 1033 q 401 1083 431 1058 q 359 1113 378 1103 q 318 1124 340 1124 q 258 1100 281 1124 q 235 1039 235 1076 l 192 1039 l 192 1043 q 227 1131 192 1096 q 318 1167 263 1167 q 374 1154 351 1167 q 428 1117 397 1142 q 470 1087 451 1097 q 511 1076 489 1076 q 572 1101 549 1076 q 594 1163 594 1125 l 638 1163 l 638 1158 q 602 1069 638 1104 q 511 1033 567 1033 z "},"Ò":{"ha":1157,"x_min":83,"x_max":1074,"o":"m 579 -19 q 331 47 444 -19 q 150 227 217 114 q 83 475 83 340 q 150 724 83 610 q 331 904 217 838 q 579 971 444 971 q 827 904 714 971 q 1007 724 940 838 q 1074 475 1074 610 q 1007 227 1074 340 q 827 47 940 114 q 579 -19 714 -19 m 579 26 q 804 87 701 26 q 967 250 907 147 q 1028 475 1028 353 q 967 701 1028 597 q 804 865 907 804 q 579 925 701 925 q 353 865 457 925 q 190 701 250 804 q 129 475 129 597 q 190 250 129 353 q 353 87 250 147 q 579 26 457 26 m 468 1179 l 499 1210 l 688 1019 l 657 990 l 468 1179 z "},"Ó":{"ha":1157,"x_min":83,"x_max":1074,"o":"m 579 -19 q 331 47 444 -19 q 150 227 217 114 q 83 475 83 340 q 150 724 83 610 q 331 904 217 838 q 579 971 444 971 q 827 904 714 971 q 1007 724 940 838 q 1074 475 1074 610 q 1007 227 1074 340 q 827 47 940 114 q 579 -19 714 -19 m 579 26 q 804 87 701 26 q 967 250 907 147 q 1028 475 1028 353 q 967 701 1028 597 q 804 865 907 804 q 579 925 701 925 q 353 865 457 925 q 190 701 250 804 q 129 475 129 597 q 190 250 129 353 q 353 87 250 147 q 579 26 457 26 m 657 1210 l 688 1179 l 499 990 l 468 1019 l 657 1210 z "},"Ô":{"ha":1157,"x_min":83,"x_max":1074,"o":"m 579 -19 q 331 47 444 -19 q 150 227 217 114 q 83 475 83 340 q 150 724 83 610 q 331 904 217 838 q 579 971 444 971 q 827 904 714 971 q 1007 724 940 838 q 1074 475 1074 610 q 1007 227 1074 340 q 827 47 940 114 q 579 -19 714 -19 m 579 26 q 804 87 701 26 q 967 250 907 147 q 1028 475 1028 353 q 967 701 1028 597 q 804 865 907 804 q 579 925 701 925 q 353 865 457 925 q 190 701 250 804 q 129 475 129 597 q 190 250 129 353 q 353 87 250 147 q 579 26 457 26 m 578 1210 l 768 1019 l 738 990 l 578 1149 l 419 990 l 389 1019 l 578 1210 z "},"Õ":{"ha":1157,"x_min":83,"x_max":1074,"o":"m 579 -19 q 331 47 444 -19 q 150 227 217 114 q 83 475 83 340 q 150 724 83 610 q 331 904 217 838 q 579 971 444 971 q 827 904 714 971 q 1007 724 940 838 q 1074 475 1074 610 q 1007 227 1074 340 q 827 47 940 114 q 579 -19 714 -19 m 579 26 q 804 87 701 26 q 967 250 907 147 q 1028 475 1028 353 q 967 701 1028 597 q 804 865 907 804 q 579 925 701 925 q 353 865 457 925 q 190 701 250 804 q 129 475 129 597 q 190 250 129 353 q 353 87 250 147 q 579 26 457 26 m 675 1033 q 618 1046 642 1033 q 565 1083 594 1058 q 523 1113 542 1103 q 482 1124 504 1124 q 422 1100 444 1124 q 399 1039 399 1076 l 356 1039 l 356 1043 q 391 1131 356 1096 q 482 1167 426 1167 q 538 1154 515 1167 q 592 1117 561 1142 q 634 1087 615 1097 q 675 1076 653 1076 q 735 1101 713 1076 q 758 1163 758 1125 l 801 1163 l 801 1158 q 766 1069 801 1104 q 675 1033 731 1033 z "},"Ö":{"ha":1157,"x_min":83,"x_max":1074,"o":"m 579 -19 q 331 47 444 -19 q 150 227 217 114 q 83 475 83 340 q 150 724 83 610 q 331 904 217 838 q 579 971 444 971 q 827 904 714 971 q 1007 724 940 838 q 1074 475 1074 610 q 1007 227 1074 340 q 827 47 940 114 q 579 -19 714 -19 m 579 26 q 804 87 701 26 q 967 250 907 147 q 1028 475 1028 353 q 967 701 1028 597 q 804 865 907 804 q 579 925 701 925 q 353 865 457 925 q 190 701 250 804 q 129 475 129 597 q 190 250 129 353 q 353 87 250 147 q 579 26 457 26 m 471 1143 q 501 1131 489 1143 q 514 1100 514 1118 q 501 1069 514 1082 q 471 1057 489 1057 q 440 1069 453 1057 q 428 1100 428 1082 q 440 1131 428 1118 q 471 1143 453 1143 m 686 1143 q 717 1131 704 1143 q 729 1100 729 1118 q 717 1069 729 1082 q 686 1057 704 1057 q 656 1069 668 1057 q 643 1100 643 1082 q 656 1131 643 1118 q 686 1143 668 1143 z "},"×":{"ha":724,"x_min":94,"x_max":629,"o":"m 393 475 l 629 239 l 599 208 l 363 446 l 125 208 l 94 239 l 332 475 l 94 713 l 125 743 l 363 506 l 599 743 l 629 713 l 393 475 z "},"Ø":{"ha":1157,"x_min":83,"x_max":1074,"o":"m 944 808 q 1040 656 1006 742 q 1074 475 1074 571 q 1007 227 1074 340 q 827 47 940 114 q 579 -19 714 -19 q 397 15 483 -19 q 244 111 311 49 l 149 13 l 115 46 l 211 144 q 117 296 150 211 q 83 475 83 381 q 150 724 83 610 q 331 904 217 838 q 579 971 444 971 q 759 937 674 971 q 911 842 844 903 l 1008 939 l 1042 906 l 944 808 m 579 925 q 353 865 457 925 q 190 701 250 804 q 129 475 129 597 q 159 313 129 390 q 244 175 189 235 l 879 810 q 742 895 819 865 q 579 925 664 925 m 579 26 q 804 87 701 26 q 967 250 907 147 q 1028 475 1028 353 q 998 638 1028 560 q 913 776 968 715 l 278 142 q 417 56 339 86 q 579 26 494 26 z "},"Ù":{"ha":838,"x_min":167,"x_max":671,"o":"m 418 -12 q 292 22 350 -12 q 201 113 235 56 q 167 239 167 171 l 167 951 l 214 951 l 214 239 q 242 136 214 183 q 316 61 269 89 q 418 33 363 33 q 521 61 474 33 q 596 136 568 89 q 624 239 624 183 l 624 951 l 671 951 l 671 239 q 637 113 671 171 q 544 22 603 56 q 418 -12 486 -12 m 308 1179 l 339 1210 l 528 1019 l 497 990 l 308 1179 z "},"Ú":{"ha":838,"x_min":167,"x_max":671,"o":"m 418 -12 q 292 22 350 -12 q 201 113 235 56 q 167 239 167 171 l 167 951 l 214 951 l 214 239 q 242 136 214 183 q 316 61 269 89 q 418 33 363 33 q 521 61 474 33 q 596 136 568 89 q 624 239 624 183 l 624 951 l 671 951 l 671 239 q 637 113 671 171 q 544 22 603 56 q 418 -12 486 -12 m 497 1210 l 528 1179 l 339 990 l 308 1019 l 497 1210 z "},"Û":{"ha":838,"x_min":167,"x_max":671,"o":"m 418 -12 q 292 22 350 -12 q 201 113 235 56 q 167 239 167 171 l 167 951 l 214 951 l 214 239 q 242 136 214 183 q 316 61 269 89 q 418 33 363 33 q 521 61 474 33 q 596 136 568 89 q 624 239 624 183 l 624 951 l 671 951 l 671 239 q 637 113 671 171 q 544 22 603 56 q 418 -12 486 -12 m 418 1210 l 608 1019 l 578 990 l 418 1149 l 260 990 l 229 1019 l 418 1210 z "},"Ü":{"ha":838,"x_min":167,"x_max":671,"o":"m 418 -12 q 292 22 350 -12 q 201 113 235 56 q 167 239 167 171 l 167 951 l 214 951 l 214 239 q 242 136 214 183 q 316 61 269 89 q 418 33 363 33 q 521 61 474 33 q 596 136 568 89 q 624 239 624 183 l 624 951 l 671 951 l 671 239 q 637 113 671 171 q 544 22 603 56 q 418 -12 486 -12 m 311 1143 q 342 1131 329 1143 q 354 1100 354 1118 q 342 1069 354 1082 q 311 1057 329 1057 q 281 1069 293 1057 q 268 1100 268 1082 q 281 1131 268 1118 q 311 1143 293 1143 m 526 1143 q 557 1131 544 1143 q 569 1100 569 1118 q 557 1069 569 1082 q 526 1057 544 1057 q 496 1069 508 1057 q 483 1100 483 1082 q 496 1131 483 1118 q 526 1143 508 1143 z "},"Ý":{"ha":776,"x_min":21,"x_max":756,"o":"m 411 0 l 364 0 l 364 382 l 21 951 l 76 951 l 389 433 l 700 951 l 756 951 l 411 381 l 411 0 m 467 1210 l 497 1179 l 308 990 l 278 1019 l 467 1210 z "},"Þ":{"ha":685,"x_min":167,"x_max":594,"o":"m 214 142 l 214 0 l 167 0 l 167 951 l 214 951 l 214 800 l 265 800 q 430 756 354 800 q 550 635 506 711 q 594 471 594 560 q 550 306 594 382 q 430 186 506 231 q 265 142 354 142 l 214 142 m 214 753 l 214 189 l 265 189 q 406 227 342 189 q 509 330 471 265 q 547 471 547 394 q 509 612 547 547 q 406 715 471 676 q 265 753 342 753 l 214 753 z "},"ß":{"ha":643,"x_min":111,"x_max":574,"o":"m 450 893 q 376 904 413 904 q 266 877 315 904 q 188 801 217 850 q 158 686 158 751 l 158 0 l 111 0 l 111 686 q 147 830 111 769 q 242 921 182 890 q 376 951 303 951 q 514 919 456 951 l 390 639 q 524 511 474 593 q 574 331 574 429 q 526 153 574 235 q 400 25 479 72 q 229 -22 321 -22 l 222 -22 l 222 24 l 229 24 q 377 65 308 24 q 487 177 446 107 q 528 329 528 247 q 474 504 528 429 q 346 606 419 579 l 326 613 l 450 893 z "},"à":{"ha":729,"x_min":69,"x_max":618,"o":"m 571 43 q 383 -19 486 -19 q 226 22 297 -19 q 112 136 154 64 q 69 293 69 208 q 112 450 69 378 q 226 565 154 522 q 383 607 299 607 q 571 543 485 607 l 571 588 l 618 588 l 618 0 l 571 0 l 571 43 m 571 482 q 484 539 532 518 q 383 560 436 560 q 250 524 311 560 q 153 426 189 488 q 117 293 117 365 q 153 160 117 221 q 250 64 189 100 q 383 28 311 28 q 484 49 436 28 q 571 106 532 69 l 571 482 m 254 860 l 285 890 l 474 700 l 443 671 l 254 860 z "},"á":{"ha":729,"x_min":69,"x_max":618,"o":"m 571 43 q 383 -19 486 -19 q 226 22 297 -19 q 112 136 154 64 q 69 293 69 208 q 112 450 69 378 q 226 565 154 522 q 383 607 299 607 q 571 543 485 607 l 571 588 l 618 588 l 618 0 l 571 0 l 571 43 m 571 482 q 484 539 532 518 q 383 560 436 560 q 250 524 311 560 q 153 426 189 488 q 117 293 117 365 q 153 160 117 221 q 250 64 189 100 q 383 28 311 28 q 484 49 436 28 q 571 106 532 69 l 571 482 m 443 888 l 474 857 l 285 668 l 254 697 l 443 888 z "},"â":{"ha":729,"x_min":69,"x_max":618,"o":"m 571 43 q 383 -19 486 -19 q 226 22 297 -19 q 112 136 154 64 q 69 293 69 208 q 112 450 69 378 q 226 565 154 522 q 383 607 299 607 q 571 543 485 607 l 571 588 l 618 588 l 618 0 l 571 0 l 571 43 m 571 482 q 484 539 532 518 q 383 560 436 560 q 250 524 311 560 q 153 426 189 488 q 117 293 117 365 q 153 160 117 221 q 250 64 189 100 q 383 28 311 28 q 484 49 436 28 q 571 106 532 69 l 571 482 m 364 899 l 554 708 l 524 679 l 364 838 l 206 679 l 175 708 l 364 899 z "},"ã":{"ha":729,"x_min":69,"x_max":618,"o":"m 571 43 q 383 -19 486 -19 q 226 22 297 -19 q 112 136 154 64 q 69 293 69 208 q 112 450 69 378 q 226 565 154 522 q 383 607 299 607 q 571 543 485 607 l 571 588 l 618 588 l 618 0 l 571 0 l 571 43 m 571 482 q 484 539 532 518 q 383 560 436 560 q 250 524 311 560 q 153 426 189 488 q 117 293 117 365 q 153 160 117 221 q 250 64 189 100 q 383 28 311 28 q 484 49 436 28 q 571 106 532 69 l 571 482 m 461 711 q 404 724 428 711 q 351 761 381 736 q 309 791 328 781 q 268 801 290 801 q 208 778 231 801 q 185 717 185 754 l 142 717 l 142 721 q 177 809 142 774 q 268 844 213 844 q 324 832 301 844 q 378 794 347 819 q 420 765 401 775 q 461 754 439 754 q 522 778 499 754 q 544 840 544 803 l 588 840 l 588 836 q 552 747 588 782 q 461 711 517 711 z "},"ä":{"ha":729,"x_min":69,"x_max":618,"o":"m 571 43 q 383 -19 486 -19 q 226 22 297 -19 q 112 136 154 64 q 69 293 69 208 q 112 450 69 378 q 226 565 154 522 q 383 607 299 607 q 571 543 485 607 l 571 588 l 618 588 l 618 0 l 571 0 l 571 43 m 571 482 q 484 539 532 518 q 383 560 436 560 q 250 524 311 560 q 153 426 189 488 q 117 293 117 365 q 153 160 117 221 q 250 64 189 100 q 383 28 311 28 q 484 49 436 28 q 571 106 532 69 l 571 482 m 257 819 q 288 807 275 819 q 300 776 300 794 q 288 746 300 758 q 257 733 275 733 q 226 746 239 733 q 214 776 214 758 q 226 807 214 794 q 257 819 239 819 m 472 819 q 503 807 490 819 q 515 776 515 794 q 503 746 515 758 q 472 733 490 733 q 442 746 454 733 q 429 776 429 758 q 442 807 429 794 q 472 819 454 819 z "},"å":{"ha":729,"x_min":69,"x_max":618,"o":"m 571 43 q 383 -19 486 -19 q 226 22 297 -19 q 112 136 154 64 q 69 293 69 208 q 112 450 69 378 q 226 565 154 522 q 383 607 299 607 q 571 543 485 607 l 571 588 l 618 588 l 618 0 l 571 0 l 571 43 m 571 482 q 484 539 532 518 q 383 560 436 560 q 250 524 311 560 q 153 426 189 488 q 117 293 117 365 q 153 160 117 221 q 250 64 189 100 q 383 28 311 28 q 484 49 436 28 q 571 106 532 69 l 571 482 m 364 642 q 267 682 307 642 q 226 779 226 722 q 267 876 226 836 q 364 917 307 917 q 461 876 421 917 q 501 779 501 836 q 461 682 501 722 q 364 642 421 642 m 364 878 q 294 849 324 878 q 265 779 265 819 q 294 710 265 739 q 364 681 324 681 q 433 710 404 681 q 463 779 463 739 q 433 849 463 819 q 364 878 404 878 z "},"æ":{"ha":1182,"x_min":69,"x_max":1119,"o":"m 69 293 q 112 450 69 378 q 226 565 154 522 q 383 607 299 607 q 571 543 485 607 l 571 588 l 618 588 l 618 543 q 806 607 701 607 q 956 569 886 607 q 1068 462 1025 531 q 1118 304 1111 393 l 1119 269 l 618 269 l 618 106 q 705 49 657 69 q 806 28 753 28 q 906 49 858 28 q 993 106 954 69 l 1026 72 q 926 5 983 29 q 806 -19 869 -19 q 618 44 701 -19 l 618 0 l 571 0 l 571 43 q 383 -19 486 -19 q 226 22 297 -19 q 112 136 154 64 q 69 293 69 208 m 571 482 q 484 539 532 518 q 383 560 436 560 q 250 524 311 560 q 153 426 189 488 q 117 293 117 365 q 153 160 117 221 q 250 64 189 100 q 383 28 311 28 q 484 49 436 28 q 571 106 532 69 l 571 482 m 1071 317 q 1028 438 1065 382 q 933 527 992 494 q 806 560 874 560 q 705 539 756 560 q 618 482 654 518 l 618 317 l 1071 317 z "},"ç":{"ha":660,"x_min":69,"x_max":604,"o":"m 604 72 q 513 8 564 32 q 404 -19 461 -15 q 444 -139 444 -72 q 430 -212 444 -176 q 388 -276 415 -249 l 353 -242 q 396 -139 396 -200 q 353 -35 396 -78 l 368 -19 q 217 27 286 -15 q 109 140 149 69 q 69 293 69 211 q 112 450 69 378 q 226 565 154 522 q 383 607 299 607 q 503 583 446 607 q 604 514 560 558 l 571 482 q 484 539 532 518 q 383 560 436 560 q 250 524 311 560 q 153 426 189 488 q 117 293 117 365 q 153 160 117 221 q 250 64 189 100 q 383 28 311 28 q 484 49 436 28 q 571 106 532 69 l 604 72 z "},"è":{"ha":760,"x_min":69,"x_max":697,"o":"m 604 72 q 504 5 561 29 q 383 -19 447 -19 q 226 22 297 -19 q 112 136 154 64 q 69 293 69 208 q 112 450 69 378 q 226 565 154 522 q 383 607 299 607 q 533 569 464 607 q 646 461 603 531 q 696 301 689 392 q 697 269 697 290 l 117 269 q 160 147 122 203 q 256 60 197 92 q 383 28 315 28 q 484 49 436 28 q 571 106 532 69 l 604 72 m 649 317 q 606 439 643 383 q 510 527 568 494 q 383 560 451 560 q 256 527 315 560 q 160 439 197 494 q 117 317 122 383 l 649 317 m 267 860 l 297 890 l 486 700 l 456 671 l 267 860 z "},"é":{"ha":760,"x_min":69,"x_max":697,"o":"m 604 72 q 504 5 561 29 q 383 -19 447 -19 q 226 22 297 -19 q 112 136 154 64 q 69 293 69 208 q 112 450 69 378 q 226 565 154 522 q 383 607 299 607 q 533 569 464 607 q 646 461 603 531 q 696 301 689 392 q 697 269 697 290 l 117 269 q 160 147 122 203 q 256 60 197 92 q 383 28 315 28 q 484 49 436 28 q 571 106 532 69 l 604 72 m 649 317 q 606 439 643 383 q 510 527 568 494 q 383 560 451 560 q 256 527 315 560 q 160 439 197 494 q 117 317 122 383 l 649 317 m 456 888 l 486 857 l 297 668 l 267 697 l 456 888 z "},"ê":{"ha":760,"x_min":69,"x_max":697,"o":"m 604 72 q 504 5 561 29 q 383 -19 447 -19 q 226 22 297 -19 q 112 136 154 64 q 69 293 69 208 q 112 450 69 378 q 226 565 154 522 q 383 607 299 607 q 533 569 464 607 q 646 461 603 531 q 696 301 689 392 q 697 269 697 290 l 117 269 q 160 147 122 203 q 256 60 197 92 q 383 28 315 28 q 484 49 436 28 q 571 106 532 69 l 604 72 m 649 317 q 606 439 643 383 q 510 527 568 494 q 383 560 451 560 q 256 527 315 560 q 160 439 197 494 q 117 317 122 383 l 649 317 m 375 899 l 565 708 l 535 679 l 375 838 l 217 679 l 186 708 l 375 899 z "},"ë":{"ha":760,"x_min":69,"x_max":697,"o":"m 604 72 q 504 5 561 29 q 383 -19 447 -19 q 226 22 297 -19 q 112 136 154 64 q 69 293 69 208 q 112 450 69 378 q 226 565 154 522 q 383 607 299 607 q 533 569 464 607 q 646 461 603 531 q 696 301 689 392 q 697 269 697 290 l 117 269 q 160 147 122 203 q 256 60 197 92 q 383 28 315 28 q 484 49 436 28 q 571 106 532 69 l 604 72 m 649 317 q 606 439 643 383 q 510 527 568 494 q 383 560 451 560 q 256 527 315 560 q 160 439 197 494 q 117 317 122 383 l 649 317 m 268 819 q 299 807 286 819 q 311 776 311 794 q 299 746 311 758 q 268 733 286 733 q 238 746 250 733 q 225 776 225 758 q 238 807 225 794 q 268 819 250 819 m 483 819 q 514 807 501 819 q 526 776 526 794 q 514 746 526 758 q 483 733 501 733 q 453 746 465 733 q 440 776 440 758 q 453 807 440 794 q 483 819 465 819 z "},"ì":{"ha":269,"x_min":25,"x_max":244,"o":"m 111 588 l 158 588 l 158 0 l 111 0 l 111 588 m 25 860 l 56 890 l 244 700 l 214 671 l 25 860 z "},"í":{"ha":269,"x_min":25,"x_max":244,"o":"m 111 588 l 158 588 l 158 0 l 111 0 l 111 588 m 214 888 l 244 857 l 56 668 l 25 697 l 214 888 z "},"î":{"ha":269,"x_min":-54,"x_max":325,"o":"m 111 588 l 158 588 l 158 0 l 111 0 l 111 588 m 135 899 l 325 708 l 294 679 l 135 838 l -24 679 l -54 708 l 135 899 z "},"ï":{"ha":269,"x_min":-15,"x_max":286,"o":"m 111 588 l 158 588 l 158 0 l 111 0 l 111 588 m 28 819 q 58 807 46 819 q 71 776 71 794 q 58 746 71 758 q 28 733 46 733 q -3 746 10 733 q -15 776 -15 758 q -3 807 -15 794 q 28 819 10 819 m 243 819 q 274 807 261 819 q 286 776 286 794 q 274 746 286 758 q 243 733 261 733 q 213 746 225 733 q 200 776 200 758 q 213 807 200 794 q 243 819 225 819 z "},"ð":{"ha":767,"x_min":69,"x_max":697,"o":"m 671 421 q 697 294 697 360 q 655 138 697 210 q 540 23 613 65 q 383 -19 468 -19 q 226 22 297 -19 q 112 136 154 64 q 69 293 69 208 q 112 450 69 378 q 226 565 154 522 q 383 607 299 607 q 563 550 483 607 l 472 756 l 285 675 l 285 726 l 454 800 l 389 951 l 440 951 l 497 818 l 683 899 l 683 847 l 517 775 l 671 421 m 383 28 q 517 64 456 28 q 614 161 578 100 q 650 294 650 222 q 614 427 650 367 q 517 524 578 488 q 383 560 456 560 q 250 524 311 560 q 153 426 189 488 q 117 293 117 365 q 153 160 117 221 q 250 64 189 100 q 383 28 311 28 z "},"ñ":{"ha":599,"x_min":76,"x_max":522,"o":"m 158 539 q 220 588 182 569 q 308 607 258 607 q 436 554 385 607 q 488 413 488 501 l 488 0 l 440 0 l 440 413 q 402 521 440 482 q 308 560 364 560 q 218 535 258 560 q 158 468 178 510 l 158 0 l 111 0 l 111 588 l 158 588 l 158 539 m 396 711 q 339 724 363 711 q 286 761 315 736 q 244 791 263 781 q 203 801 225 801 q 142 778 165 801 q 119 717 119 754 l 76 717 l 76 721 q 112 809 76 774 q 203 844 147 844 q 259 832 236 844 q 313 794 282 819 q 355 765 336 775 q 396 754 374 754 q 456 778 433 754 q 479 840 479 803 l 522 840 l 522 836 q 487 747 522 782 q 396 711 451 711 z "},"ò":{"ha":767,"x_min":69,"x_max":697,"o":"m 69 293 q 112 450 69 378 q 226 565 154 522 q 383 607 299 607 q 541 565 469 607 q 655 451 613 524 q 697 294 697 379 q 655 138 697 210 q 540 23 613 65 q 383 -19 468 -19 q 226 22 297 -19 q 112 136 154 64 q 69 293 69 208 m 383 28 q 517 64 456 28 q 614 161 578 100 q 650 294 650 222 q 614 427 650 367 q 517 524 578 488 q 383 560 456 560 q 250 524 311 560 q 153 426 189 488 q 117 293 117 365 q 153 160 117 221 q 250 64 189 100 q 383 28 311 28 m 274 860 l 304 890 l 493 700 l 463 671 l 274 860 z "},"ó":{"ha":767,"x_min":69,"x_max":697,"o":"m 69 293 q 112 450 69 378 q 226 565 154 522 q 383 607 299 607 q 541 565 469 607 q 655 451 613 524 q 697 294 697 379 q 655 138 697 210 q 540 23 613 65 q 383 -19 468 -19 q 226 22 297 -19 q 112 136 154 64 q 69 293 69 208 m 383 28 q 517 64 456 28 q 614 161 578 100 q 650 294 650 222 q 614 427 650 367 q 517 524 578 488 q 383 560 456 560 q 250 524 311 560 q 153 426 189 488 q 117 293 117 365 q 153 160 117 221 q 250 64 189 100 q 383 28 311 28 m 463 888 l 493 857 l 304 668 l 274 697 l 463 888 z "},"ô":{"ha":767,"x_min":69,"x_max":697,"o":"m 69 293 q 112 450 69 378 q 226 565 154 522 q 383 607 299 607 q 541 565 469 607 q 655 451 613 524 q 697 294 697 379 q 655 138 697 210 q 540 23 613 65 q 383 -19 468 -19 q 226 22 297 -19 q 112 136 154 64 q 69 293 69 208 m 383 28 q 517 64 456 28 q 614 161 578 100 q 650 294 650 222 q 614 427 650 367 q 517 524 578 488 q 383 560 456 560 q 250 524 311 560 q 153 426 189 488 q 117 293 117 365 q 153 160 117 221 q 250 64 189 100 q 383 28 311 28 m 382 899 l 572 708 l 542 679 l 382 838 l 224 679 l 193 708 l 382 899 z "},"õ":{"ha":767,"x_min":69,"x_max":697,"o":"m 69 293 q 112 450 69 378 q 226 565 154 522 q 383 607 299 607 q 541 565 469 607 q 655 451 613 524 q 697 294 697 379 q 655 138 697 210 q 540 23 613 65 q 383 -19 468 -19 q 226 22 297 -19 q 112 136 154 64 q 69 293 69 208 m 383 28 q 517 64 456 28 q 614 161 578 100 q 650 294 650 222 q 614 427 650 367 q 517 524 578 488 q 383 560 456 560 q 250 524 311 560 q 153 426 189 488 q 117 293 117 365 q 153 160 117 221 q 250 64 189 100 q 383 28 311 28 m 479 711 q 422 724 446 711 q 369 761 399 736 q 327 791 346 781 q 286 801 308 801 q 226 778 249 801 q 203 717 203 754 l 160 717 l 160 721 q 195 809 160 774 q 286 844 231 844 q 342 832 319 844 q 396 794 365 819 q 438 765 419 775 q 479 754 457 754 q 540 778 517 754 q 563 840 563 803 l 606 840 l 606 836 q 570 747 606 782 q 479 711 535 711 z "},"ö":{"ha":767,"x_min":69,"x_max":697,"o":"m 69 293 q 112 450 69 378 q 226 565 154 522 q 383 607 299 607 q 541 565 469 607 q 655 451 613 524 q 697 294 697 379 q 655 138 697 210 q 540 23 613 65 q 383 -19 468 -19 q 226 22 297 -19 q 112 136 154 64 q 69 293 69 208 m 383 28 q 517 64 456 28 q 614 161 578 100 q 650 294 650 222 q 614 427 650 367 q 517 524 578 488 q 383 560 456 560 q 250 524 311 560 q 153 426 189 488 q 117 293 117 365 q 153 160 117 221 q 250 64 189 100 q 383 28 311 28 m 275 819 q 306 807 293 819 q 318 776 318 794 q 306 746 318 758 q 275 733 293 733 q 244 746 257 733 q 232 776 232 758 q 244 807 232 794 q 275 819 257 819 m 490 819 q 521 807 508 819 q 533 776 533 794 q 521 746 533 758 q 490 733 508 733 q 460 746 472 733 q 447 776 447 758 q 460 807 447 794 q 490 819 472 819 z "},"÷":{"ha":768,"x_min":28,"x_max":740,"o":"m 356 771 l 426 771 l 426 626 l 356 626 l 356 771 m 28 497 l 740 497 l 740 454 l 28 454 l 28 497 m 356 326 l 426 326 l 426 183 l 356 183 l 356 326 z "},"ø":{"ha":767,"x_min":69,"x_max":697,"o":"m 619 500 q 677 406 657 458 q 697 294 697 353 q 655 138 697 210 q 540 23 613 65 q 383 -19 468 -19 q 178 56 267 -19 l 103 -19 l 69 14 l 144 89 q 69 293 69 178 q 112 450 69 378 q 226 565 154 522 q 383 607 299 607 q 492 588 440 607 q 586 533 544 568 l 664 610 l 697 576 l 619 500 m 117 293 q 133 202 117 246 q 179 124 150 158 l 553 499 q 474 544 518 528 q 383 560 431 560 q 250 524 311 560 q 153 426 189 488 q 117 293 117 365 m 383 28 q 517 64 456 28 q 614 161 578 100 q 650 294 650 222 q 586 465 650 393 l 213 90 q 383 28 286 28 z "},"ù":{"ha":599,"x_min":111,"x_max":488,"o":"m 440 47 q 378 -1 417 17 q 290 -19 339 -19 q 163 33 214 -19 q 111 175 111 86 l 111 588 l 158 588 l 158 175 q 197 67 158 106 q 290 28 235 28 q 380 53 339 28 q 440 118 421 78 l 440 588 l 488 588 l 488 0 l 440 0 l 440 47 m 189 860 l 219 890 l 408 700 l 378 671 l 189 860 z "},"ú":{"ha":599,"x_min":111,"x_max":488,"o":"m 440 47 q 378 -1 417 17 q 290 -19 339 -19 q 163 33 214 -19 q 111 175 111 86 l 111 588 l 158 588 l 158 175 q 197 67 158 106 q 290 28 235 28 q 380 53 339 28 q 440 118 421 78 l 440 588 l 488 588 l 488 0 l 440 0 l 440 47 m 378 888 l 408 857 l 219 668 l 189 697 l 378 888 z "},"û":{"ha":599,"x_min":110,"x_max":489,"o":"m 440 47 q 378 -1 417 17 q 290 -19 339 -19 q 163 33 214 -19 q 111 175 111 86 l 111 588 l 158 588 l 158 175 q 197 67 158 106 q 290 28 235 28 q 380 53 339 28 q 440 118 421 78 l 440 588 l 488 588 l 488 0 l 440 0 l 440 47 m 299 899 l 489 708 l 458 679 l 299 838 l 140 679 l 110 708 l 299 899 z "},"ü":{"ha":599,"x_min":111,"x_max":488,"o":"m 440 47 q 378 -1 417 17 q 290 -19 339 -19 q 163 33 214 -19 q 111 175 111 86 l 111 588 l 158 588 l 158 175 q 197 67 158 106 q 290 28 235 28 q 380 53 339 28 q 440 118 421 78 l 440 588 l 488 588 l 488 0 l 440 0 l 440 47 m 192 819 q 222 807 210 819 q 235 776 235 794 q 222 746 235 758 q 192 733 210 733 q 161 746 174 733 q 149 776 149 758 q 161 807 149 794 q 192 819 174 819 m 407 819 q 438 807 425 819 q 450 776 450 794 q 438 746 450 758 q 407 733 425 733 q 376 746 389 733 q 364 776 364 758 q 376 807 364 794 q 407 819 389 819 z "},"ý":{"ha":503,"x_min":14,"x_max":489,"o":"m 65 588 l 251 97 l 438 588 l 489 588 l 165 -257 l 114 -257 l 228 35 l 14 588 l 65 588 m 331 888 l 361 857 l 172 668 l 142 697 l 331 888 z "},"þ":{"ha":729,"x_min":111,"x_max":660,"o":"m 158 543 q 346 607 242 607 q 503 565 432 607 q 617 451 575 524 q 660 294 660 379 q 617 138 660 210 q 503 23 575 65 q 346 -19 431 -19 q 158 44 242 -19 l 158 -257 l 111 -257 l 111 951 l 158 951 l 158 543 m 158 106 q 245 49 197 69 q 346 28 293 28 q 479 64 418 28 q 576 161 540 100 q 613 294 613 222 q 576 427 613 367 q 479 524 540 488 q 346 560 418 560 q 245 539 293 560 q 158 482 197 518 l 158 106 z "},"ÿ":{"ha":503,"x_min":14,"x_max":489,"o":"m 65 588 l 251 97 l 438 588 l 489 588 l 165 -257 l 114 -257 l 228 35 l 14 588 l 65 588 m 143 819 q 174 807 161 819 q 186 776 186 794 q 174 746 186 758 q 143 733 161 733 q 113 746 125 733 q 100 776 100 758 q 113 807 100 794 q 143 819 125 819 m 358 819 q 389 807 376 819 q 401 776 401 794 q 389 746 401 758 q 358 733 376 733 q 328 746 340 733 q 315 776 315 758 q 328 807 315 794 q 358 819 340 819 z "},"Ā":{"ha":794,"x_min":21,"x_max":774,"o":"m 142 176 l 75 0 l 21 0 l 397 981 l 774 0 l 719 0 l 653 176 l 142 176 m 639 215 l 397 853 l 156 215 l 639 215 m 175 1079 l 175 1122 l 618 1122 l 618 1079 l 175 1079 z "},"ā":{"ha":729,"x_min":69,"x_max":618,"o":"m 571 43 q 383 -19 486 -19 q 226 22 297 -19 q 112 136 154 64 q 69 293 69 208 q 112 450 69 378 q 226 565 154 522 q 383 607 299 607 q 571 543 485 607 l 571 588 l 618 588 l 618 0 l 571 0 l 571 43 m 571 482 q 484 539 532 518 q 383 560 436 560 q 250 524 311 560 q 153 426 189 488 q 117 293 117 365 q 153 160 117 221 q 250 64 189 100 q 383 28 311 28 q 484 49 436 28 q 571 106 532 69 l 571 482 m 143 756 l 143 799 l 586 799 l 586 756 l 143 756 z "},"Ă":{"ha":794,"x_min":21,"x_max":774,"o":"m 142 176 l 75 0 l 21 0 l 397 981 l 774 0 l 719 0 l 653 176 l 142 176 m 639 215 l 397 853 l 156 215 l 639 215 m 638 1138 q 526 1063 589 1089 q 396 1038 463 1038 q 267 1063 329 1038 q 156 1138 204 1089 l 186 1168 q 284 1103 229 1125 q 397 1081 339 1081 q 510 1103 456 1081 q 607 1168 564 1125 l 638 1138 z "},"ă":{"ha":729,"x_min":69,"x_max":618,"o":"m 571 43 q 383 -19 486 -19 q 226 22 297 -19 q 112 136 154 64 q 69 293 69 208 q 112 450 69 378 q 226 565 154 522 q 383 607 299 607 q 571 543 485 607 l 571 588 l 618 588 l 618 0 l 571 0 l 571 43 m 571 482 q 484 539 532 518 q 383 560 436 560 q 250 524 311 560 q 153 426 189 488 q 117 293 117 365 q 153 160 117 221 q 250 64 189 100 q 383 28 311 28 q 484 49 436 28 q 571 106 532 69 l 571 482 m 606 814 q 494 740 557 765 q 364 714 431 714 q 235 740 297 714 q 124 814 172 765 l 154 844 q 252 779 197 801 q 365 757 307 757 q 478 779 424 757 q 575 844 532 801 l 606 814 z "},"Ą":{"ha":794,"x_min":21,"x_max":774,"o":"m 753 0 q 672 -33 706 0 q 638 -114 638 -67 q 672 -195 638 -161 q 753 -229 706 -229 l 753 -276 q 638 -228 686 -276 q 590 -114 590 -181 q 622 -18 590 -61 q 704 40 654 25 l 653 176 l 142 176 l 75 0 l 21 0 l 397 981 l 774 0 l 753 0 m 639 215 l 397 853 l 156 215 l 639 215 z "},"ą":{"ha":729,"x_min":69,"x_max":618,"o":"m 618 588 l 618 0 q 537 -33 571 0 q 503 -114 503 -67 q 537 -195 503 -161 q 618 -229 571 -229 l 618 -276 q 503 -231 551 -276 q 456 -122 456 -186 q 488 -30 456 -69 q 571 24 519 10 l 571 54 q 383 -19 478 -19 q 226 22 297 -19 q 112 136 154 64 q 69 293 69 208 q 112 450 69 378 q 226 565 154 522 q 383 607 299 607 q 571 543 485 607 l 571 588 l 618 588 m 383 28 q 484 49 436 28 q 571 106 532 69 l 571 482 q 484 539 532 518 q 383 560 436 560 q 250 524 311 560 q 153 426 189 488 q 117 293 117 365 q 153 160 117 221 q 250 64 189 100 q 383 28 311 28 z "},"Ć":{"ha":971,"x_min":83,"x_max":929,"o":"m 929 125 q 769 19 860 57 q 579 -19 679 -19 q 331 47 444 -19 q 150 227 217 114 q 83 475 83 340 q 150 724 83 610 q 331 904 217 838 q 579 971 444 971 q 769 933 679 971 q 929 825 860 894 l 896 793 q 751 890 833 856 q 579 925 669 925 q 353 865 457 925 q 190 701 250 804 q 129 475 129 597 q 190 250 129 353 q 353 87 250 147 q 579 26 457 26 q 753 61 671 26 q 896 158 835 96 l 929 125 m 658 1210 l 689 1179 l 500 990 l 469 1019 l 658 1210 z "},"ć":{"ha":660,"x_min":69,"x_max":604,"o":"m 604 72 q 504 5 561 29 q 383 -19 447 -19 q 226 22 297 -19 q 112 136 154 64 q 69 293 69 208 q 112 450 69 378 q 226 565 154 522 q 383 607 299 607 q 503 583 446 607 q 604 514 560 558 l 571 482 q 484 539 532 518 q 383 560 436 560 q 250 524 311 560 q 153 426 189 488 q 117 293 117 365 q 153 160 117 221 q 250 64 189 100 q 383 28 311 28 q 484 49 436 28 q 571 106 532 69 l 604 72 m 463 888 l 493 857 l 304 668 l 274 697 l 463 888 z "},"Ĉ":{"ha":971,"x_min":83,"x_max":929,"o":"m 929 125 q 769 19 860 57 q 579 -19 679 -19 q 331 47 444 -19 q 150 227 217 114 q 83 475 83 340 q 150 724 83 610 q 331 904 217 838 q 579 971 444 971 q 769 933 679 971 q 929 825 860 894 l 896 793 q 751 890 833 856 q 579 925 669 925 q 353 865 457 925 q 190 701 250 804 q 129 475 129 597 q 190 250 129 353 q 353 87 250 147 q 579 26 457 26 q 753 61 671 26 q 896 158 835 96 l 929 125 m 576 1210 l 767 1019 l 736 990 l 576 1149 l 418 990 l 388 1019 l 576 1210 z "},"ĉ":{"ha":660,"x_min":69,"x_max":604,"o":"m 604 72 q 504 5 561 29 q 383 -19 447 -19 q 226 22 297 -19 q 112 136 154 64 q 69 293 69 208 q 112 450 69 378 q 226 565 154 522 q 383 607 299 607 q 503 583 446 607 q 604 514 560 558 l 571 482 q 484 539 532 518 q 383 560 436 560 q 250 524 311 560 q 153 426 189 488 q 117 293 117 365 q 153 160 117 221 q 250 64 189 100 q 383 28 311 28 q 484 49 436 28 q 571 106 532 69 l 604 72 m 383 899 l 574 708 l 543 679 l 383 838 l 225 679 l 194 708 l 383 899 z "},"Ċ":{"ha":971,"x_min":83,"x_max":929,"o":"m 929 125 q 769 19 860 57 q 579 -19 679 -19 q 331 47 444 -19 q 150 227 217 114 q 83 475 83 340 q 150 724 83 610 q 331 904 217 838 q 579 971 444 971 q 769 933 679 971 q 929 825 860 894 l 896 793 q 751 890 833 856 q 579 925 669 925 q 353 865 457 925 q 190 701 250 804 q 129 475 129 597 q 190 250 129 353 q 353 87 250 147 q 579 26 457 26 q 753 61 671 26 q 896 158 835 96 l 929 125 m 575 1143 q 606 1131 593 1143 q 618 1100 618 1118 q 606 1069 618 1082 q 575 1057 593 1057 q 544 1069 557 1057 q 532 1100 532 1082 q 544 1131 532 1118 q 575 1143 557 1143 z "},"ċ":{"ha":660,"x_min":69,"x_max":604,"o":"m 604 72 q 504 5 561 29 q 383 -19 447 -19 q 226 22 297 -19 q 112 136 154 64 q 69 293 69 208 q 112 450 69 378 q 226 565 154 522 q 383 607 299 607 q 503 583 446 607 q 604 514 560 558 l 571 482 q 484 539 532 518 q 383 560 436 560 q 250 524 311 560 q 153 426 189 488 q 117 293 117 365 q 153 160 117 221 q 250 64 189 100 q 383 28 311 28 q 484 49 436 28 q 571 106 532 69 l 604 72 m 383 821 q 414 808 401 821 q 426 778 426 796 q 414 747 426 760 q 383 735 401 735 q 353 747 365 735 q 340 778 340 760 q 353 808 340 796 q 383 821 365 821 z "},"Č":{"ha":971,"x_min":83,"x_max":929,"o":"m 929 125 q 769 19 860 57 q 579 -19 679 -19 q 331 47 444 -19 q 150 227 217 114 q 83 475 83 340 q 150 724 83 610 q 331 904 217 838 q 579 971 444 971 q 769 933 679 971 q 929 825 860 894 l 896 793 q 751 890 833 856 q 579 925 669 925 q 353 865 457 925 q 190 701 250 804 q 129 475 129 597 q 190 250 129 353 q 353 87 250 147 q 579 26 457 26 q 753 61 671 26 q 896 158 835 96 l 929 125 m 576 990 l 388 1179 l 418 1210 l 576 1050 l 736 1210 l 767 1179 l 576 990 z "},"č":{"ha":660,"x_min":69,"x_max":604,"o":"m 604 72 q 504 5 561 29 q 383 -19 447 -19 q 226 22 297 -19 q 112 136 154 64 q 69 293 69 208 q 112 450 69 378 q 226 565 154 522 q 383 607 299 607 q 503 583 446 607 q 604 514 560 558 l 571 482 q 484 539 532 518 q 383 560 436 560 q 250 524 311 560 q 153 426 189 488 q 117 293 117 365 q 153 160 117 221 q 250 64 189 100 q 383 28 311 28 q 484 49 436 28 q 571 106 532 69 l 604 72 m 382 658 l 193 847 l 224 878 l 382 718 l 542 878 l 572 847 l 382 658 z "},"Ď":{"ha":825,"x_min":167,"x_max":742,"o":"m 167 951 l 267 951 q 505 888 396 951 q 678 714 614 824 q 742 475 742 604 q 678 237 742 346 q 505 64 614 128 q 267 0 396 0 l 167 0 l 167 951 m 267 47 q 481 105 383 47 q 637 260 579 163 q 694 475 694 358 q 637 690 694 592 q 481 847 579 789 q 267 904 383 904 l 214 904 l 214 47 l 267 47 m 411 990 l 222 1179 l 253 1210 l 411 1050 l 571 1210 l 601 1179 l 411 990 z "},"ď":{"ha":729,"x_min":69,"x_max":764,"o":"m 571 43 q 383 -19 486 -19 q 226 22 297 -19 q 112 136 154 64 q 69 293 69 208 q 112 450 69 378 q 226 565 154 522 q 383 607 299 607 q 571 543 485 607 l 571 951 l 618 951 l 618 0 l 571 0 l 571 43 m 571 482 q 484 539 532 518 q 383 560 436 560 q 250 524 311 560 q 153 426 189 488 q 117 293 117 365 q 153 160 117 221 q 250 64 189 100 q 383 28 311 28 q 484 49 436 28 q 571 106 532 69 l 571 482 m 693 951 l 764 951 l 764 860 l 693 694 l 693 951 z "},"Đ":{"ha":825,"x_min":42,"x_max":742,"o":"m 167 499 l 167 951 l 267 951 q 505 888 396 951 q 678 714 614 824 q 742 475 742 604 q 678 237 742 346 q 505 64 614 128 q 267 0 396 0 l 167 0 l 167 456 l 42 456 l 42 499 l 167 499 m 214 904 l 214 499 l 451 499 l 451 456 l 214 456 l 214 47 l 267 47 q 481 105 383 47 q 637 260 579 163 q 694 475 694 358 q 637 690 694 592 q 481 847 579 789 q 267 904 383 904 l 214 904 z "},"đ":{"ha":729,"x_min":69,"x_max":729,"o":"m 571 43 q 383 -19 486 -19 q 226 22 297 -19 q 112 136 154 64 q 69 293 69 208 q 112 450 69 378 q 226 565 154 522 q 383 607 299 607 q 571 543 485 607 l 571 765 l 286 765 l 286 808 l 571 808 l 571 951 l 618 951 l 618 808 l 729 808 l 729 765 l 618 765 l 618 0 l 571 0 l 571 43 m 571 482 q 484 539 532 518 q 383 560 436 560 q 250 524 311 560 q 153 426 189 488 q 117 293 117 365 q 153 160 117 221 q 250 64 189 100 q 383 28 311 28 q 484 49 436 28 q 571 106 532 69 l 571 482 z "},"Ē":{"ha":643,"x_min":133,"x_max":576,"o":"m 167 951 l 532 951 l 532 904 l 214 904 l 214 500 l 532 500 l 532 453 l 214 453 l 214 47 l 532 47 l 532 0 l 167 0 l 167 951 m 133 1079 l 133 1122 l 576 1122 l 576 1079 l 133 1079 z "},"ē":{"ha":760,"x_min":69,"x_max":697,"o":"m 604 72 q 504 5 561 29 q 383 -19 447 -19 q 226 22 297 -19 q 112 136 154 64 q 69 293 69 208 q 112 450 69 378 q 226 565 154 522 q 383 607 299 607 q 533 569 464 607 q 646 461 603 531 q 696 301 689 392 q 697 269 697 290 l 117 269 q 160 147 122 203 q 256 60 197 92 q 383 28 315 28 q 484 49 436 28 q 571 106 532 69 l 604 72 m 649 317 q 606 439 643 383 q 510 527 568 494 q 383 560 451 560 q 256 527 315 560 q 160 439 197 494 q 117 317 122 383 l 649 317 m 154 756 l 154 799 l 597 799 l 597 756 l 154 756 z "},"Ĕ":{"ha":643,"x_min":108,"x_max":590,"o":"m 167 951 l 532 951 l 532 904 l 214 904 l 214 500 l 532 500 l 532 453 l 214 453 l 214 47 l 532 47 l 532 0 l 167 0 l 167 951 m 590 1138 q 478 1063 542 1089 q 349 1038 415 1038 q 219 1063 282 1038 q 108 1138 157 1089 l 139 1168 q 237 1103 182 1125 q 350 1081 292 1081 q 463 1103 408 1081 q 560 1168 517 1125 l 590 1138 z "},"ĕ":{"ha":760,"x_min":69,"x_max":697,"o":"m 604 72 q 504 5 561 29 q 383 -19 447 -19 q 226 22 297 -19 q 112 136 154 64 q 69 293 69 208 q 112 450 69 378 q 226 565 154 522 q 383 607 299 607 q 533 569 464 607 q 646 461 603 531 q 696 301 689 392 q 697 269 697 290 l 117 269 q 160 147 122 203 q 256 60 197 92 q 383 28 315 28 q 484 49 436 28 q 571 106 532 69 l 604 72 m 649 317 q 606 439 643 383 q 510 527 568 494 q 383 560 451 560 q 256 527 315 560 q 160 439 197 494 q 117 317 122 383 l 649 317 m 617 814 q 505 740 568 765 q 375 714 442 714 q 246 740 308 714 q 135 814 183 765 l 165 844 q 263 779 208 801 q 376 757 318 757 q 489 779 435 757 q 586 844 543 801 l 617 814 z "},"Ė":{"ha":643,"x_min":167,"x_max":532,"o":"m 167 951 l 532 951 l 532 904 l 214 904 l 214 500 l 532 500 l 532 453 l 214 453 l 214 47 l 532 47 l 532 0 l 167 0 l 167 951 m 356 1143 q 386 1131 374 1143 q 399 1100 399 1118 q 386 1069 399 1082 q 356 1057 374 1057 q 325 1069 338 1057 q 313 1100 313 1082 q 325 1131 313 1118 q 356 1143 338 1143 z "},"ė":{"ha":760,"x_min":69,"x_max":697,"o":"m 604 72 q 504 5 561 29 q 383 -19 447 -19 q 226 22 297 -19 q 112 136 154 64 q 69 293 69 208 q 112 450 69 378 q 226 565 154 522 q 383 607 299 607 q 533 569 464 607 q 646 461 603 531 q 696 301 689 392 q 697 269 697 290 l 117 269 q 160 147 122 203 q 256 60 197 92 q 383 28 315 28 q 484 49 436 28 q 571 106 532 69 l 604 72 m 649 317 q 606 439 643 383 q 510 527 568 494 q 383 560 451 560 q 256 527 315 560 q 160 439 197 494 q 117 317 122 383 l 649 317 m 376 821 q 407 808 394 821 q 419 778 419 796 q 407 747 419 760 q 376 735 394 735 q 346 747 358 735 q 333 778 333 760 q 346 808 333 796 q 376 821 358 821 z "},"Ę":{"ha":643,"x_min":167,"x_max":532,"o":"m 214 904 l 214 500 l 532 500 l 532 453 l 214 453 l 214 47 l 532 47 l 532 0 q 451 -33 485 0 q 417 -114 417 -67 q 451 -195 417 -161 q 532 -229 485 -229 l 532 -276 q 417 -228 465 -276 q 369 -114 369 -181 q 418 0 369 -46 l 167 0 l 167 951 l 532 951 l 532 904 l 214 904 z "},"ę":{"ha":760,"x_min":69,"x_max":697,"o":"m 471 -7 q 417 -49 438 -19 q 396 -114 396 -78 q 430 -195 396 -161 q 511 -229 464 -229 l 511 -276 q 397 -228 444 -276 q 349 -114 349 -181 q 379 -19 349 -61 q 224 24 294 -18 q 111 138 153 67 q 69 293 69 208 q 112 450 69 378 q 226 565 154 522 q 383 607 299 607 q 533 569 464 607 q 646 461 603 531 q 696 301 689 392 q 697 269 697 290 l 117 269 q 160 147 122 203 q 256 60 197 92 q 383 28 315 28 q 484 49 436 28 q 571 106 532 69 l 604 72 q 471 -7 549 17 m 383 560 q 256 527 315 560 q 160 439 197 494 q 117 317 122 383 l 649 317 q 606 439 643 383 q 510 527 568 494 q 383 560 451 560 z "},"Ě":{"ha":643,"x_min":160,"x_max":539,"o":"m 167 951 l 532 951 l 532 904 l 214 904 l 214 500 l 532 500 l 532 453 l 214 453 l 214 47 l 532 47 l 532 0 l 167 0 l 167 951 m 349 990 l 160 1179 l 190 1210 l 349 1050 l 508 1210 l 539 1179 l 349 990 z "},"ě":{"ha":760,"x_min":69,"x_max":697,"o":"m 604 72 q 504 5 561 29 q 383 -19 447 -19 q 226 22 297 -19 q 112 136 154 64 q 69 293 69 208 q 112 450 69 378 q 226 565 154 522 q 383 607 299 607 q 533 569 464 607 q 646 461 603 531 q 696 301 689 392 q 697 269 697 290 l 117 269 q 160 147 122 203 q 256 60 197 92 q 383 28 315 28 q 484 49 436 28 q 571 106 532 69 l 604 72 m 649 317 q 606 439 643 383 q 510 527 568 494 q 383 560 451 560 q 256 527 315 560 q 160 439 197 494 q 117 317 122 383 l 649 317 m 375 658 l 186 847 l 217 878 l 375 718 l 535 878 l 565 847 l 375 658 z "},"Ĝ":{"ha":1074,"x_min":83,"x_max":1053,"o":"m 1053 335 q 951 150 1022 231 q 784 25 881 69 q 579 -19 688 -19 q 331 47 444 -19 q 150 227 217 114 q 83 475 83 340 q 150 724 83 610 q 331 904 217 838 q 579 971 444 971 q 768 933 676 971 q 929 825 860 894 l 896 793 q 749 890 832 856 q 579 925 667 925 q 353 865 457 925 q 190 701 250 804 q 129 475 129 597 q 190 250 129 353 q 353 87 250 147 q 579 26 457 26 q 824 98 715 26 q 988 288 933 169 l 572 288 l 572 335 l 1053 335 m 581 1210 l 771 1019 l 740 990 l 581 1149 l 422 990 l 392 1019 l 581 1210 z "},"ĝ":{"ha":729,"x_min":69,"x_max":618,"o":"m 618 -4 q 583 -151 618 -90 q 488 -244 547 -212 q 354 -276 428 -276 q 315 -274 328 -276 l 315 -226 q 354 -229 335 -229 q 510 -167 449 -229 q 571 -4 571 -106 l 571 43 q 383 -19 486 -19 q 226 22 297 -19 q 112 136 154 64 q 69 293 69 208 q 112 450 69 378 q 226 565 154 522 q 383 607 299 607 q 571 543 485 607 l 571 588 l 618 588 l 618 -4 m 571 482 q 484 539 532 518 q 383 560 436 560 q 250 524 311 560 q 153 426 189 488 q 117 293 117 365 q 153 160 117 221 q 250 64 189 100 q 383 28 311 28 q 484 49 436 28 q 571 106 532 69 l 571 482 m 364 899 l 554 708 l 524 679 l 364 838 l 206 679 l 175 708 l 364 899 z "},"Ğ":{"ha":1074,"x_min":83,"x_max":1053,"o":"m 1053 335 q 951 150 1022 231 q 784 25 881 69 q 579 -19 688 -19 q 331 47 444 -19 q 150 227 217 114 q 83 475 83 340 q 150 724 83 610 q 331 904 217 838 q 579 971 444 971 q 768 933 676 971 q 929 825 860 894 l 896 793 q 749 890 832 856 q 579 925 667 925 q 353 865 457 925 q 190 701 250 804 q 129 475 129 597 q 190 250 129 353 q 353 87 250 147 q 579 26 457 26 q 824 98 715 26 q 988 288 933 169 l 572 288 l 572 335 l 1053 335 m 821 1138 q 709 1063 772 1089 q 579 1038 646 1038 q 450 1063 513 1038 q 339 1138 388 1089 l 369 1168 q 467 1103 413 1125 q 581 1081 522 1081 q 693 1103 639 1081 q 790 1168 747 1125 l 821 1138 z "},"ğ":{"ha":729,"x_min":69,"x_max":618,"o":"m 618 -4 q 583 -151 618 -90 q 488 -244 547 -212 q 354 -276 428 -276 q 315 -274 328 -276 l 315 -226 q 354 -229 335 -229 q 510 -167 449 -229 q 571 -4 571 -106 l 571 43 q 383 -19 486 -19 q 226 22 297 -19 q 112 136 154 64 q 69 293 69 208 q 112 450 69 378 q 226 565 154 522 q 383 607 299 607 q 571 543 485 607 l 571 588 l 618 588 l 618 -4 m 571 482 q 484 539 532 518 q 383 560 436 560 q 250 524 311 560 q 153 426 189 488 q 117 293 117 365 q 153 160 117 221 q 250 64 189 100 q 383 28 311 28 q 484 49 436 28 q 571 106 532 69 l 571 482 m 606 814 q 494 740 557 765 q 364 714 431 714 q 235 740 297 714 q 124 814 172 765 l 154 844 q 252 779 197 801 q 365 757 307 757 q 478 779 424 757 q 575 844 532 801 l 606 814 z "},"Ġ":{"ha":1074,"x_min":83,"x_max":1053,"o":"m 1053 335 q 951 150 1022 231 q 784 25 881 69 q 579 -19 688 -19 q 331 47 444 -19 q 150 227 217 114 q 83 475 83 340 q 150 724 83 610 q 331 904 217 838 q 579 971 444 971 q 768 933 676 971 q 929 825 860 894 l 896 793 q 749 890 832 856 q 579 925 667 925 q 353 865 457 925 q 190 701 250 804 q 129 475 129 597 q 190 250 129 353 q 353 87 250 147 q 579 26 457 26 q 824 98 715 26 q 988 288 933 169 l 572 288 l 572 335 l 1053 335 m 579 1143 q 610 1131 597 1143 q 622 1100 622 1118 q 610 1069 622 1082 q 579 1057 597 1057 q 549 1069 561 1057 q 536 1100 536 1082 q 549 1131 536 1118 q 579 1143 561 1143 z "},"ġ":{"ha":729,"x_min":69,"x_max":618,"o":"m 618 -4 q 583 -151 618 -90 q 488 -244 547 -212 q 354 -276 428 -276 q 315 -274 328 -276 l 315 -226 q 354 -229 335 -229 q 510 -167 449 -229 q 571 -4 571 -106 l 571 43 q 383 -19 486 -19 q 226 22 297 -19 q 112 136 154 64 q 69 293 69 208 q 112 450 69 378 q 226 565 154 522 q 383 607 299 607 q 571 543 485 607 l 571 588 l 618 588 l 618 -4 m 571 482 q 484 539 532 518 q 383 560 436 560 q 250 524 311 560 q 153 426 189 488 q 117 293 117 365 q 153 160 117 221 q 250 64 189 100 q 383 28 311 28 q 484 49 436 28 q 571 106 532 69 l 571 482 m 364 821 q 394 808 382 821 q 407 778 407 796 q 394 747 407 760 q 364 735 382 735 q 333 747 346 735 q 321 778 321 760 q 333 808 321 796 q 364 821 346 821 z "},"Ģ":{"ha":1074,"x_min":83,"x_max":1053,"o":"m 1053 335 q 951 150 1022 231 q 784 25 881 69 q 579 -19 688 -19 q 331 47 444 -19 q 150 227 217 114 q 83 475 83 340 q 150 724 83 610 q 331 904 217 838 q 579 971 444 971 q 768 933 676 971 q 929 825 860 894 l 896 793 q 749 890 832 856 q 579 925 667 925 q 353 865 457 925 q 190 701 250 804 q 129 475 129 597 q 190 250 129 353 q 353 87 250 147 q 579 26 457 26 q 824 98 715 26 q 988 288 933 169 l 572 288 l 572 335 l 1053 335 m 549 -69 l 619 -69 l 619 -199 l 549 -294 l 549 -69 z "},"ģ":{"ha":729,"x_min":69,"x_max":618,"o":"m 618 -4 q 583 -151 618 -90 q 488 -244 547 -212 q 354 -276 428 -276 q 315 -274 328 -276 l 315 -226 q 354 -229 335 -229 q 510 -167 449 -229 q 571 -4 571 -106 l 571 43 q 383 -19 486 -19 q 226 22 297 -19 q 112 136 154 64 q 69 293 69 208 q 112 450 69 378 q 226 565 154 522 q 383 607 299 607 q 571 543 485 607 l 571 588 l 618 588 l 618 -4 m 571 482 q 484 539 532 518 q 383 560 436 560 q 250 524 311 560 q 153 426 189 488 q 117 293 117 365 q 153 160 117 221 q 250 64 189 100 q 383 28 311 28 q 484 49 436 28 q 571 106 532 69 l 571 482 m 400 669 l 329 669 l 329 799 l 400 894 l 400 669 z "},"Ĥ":{"ha":790,"x_min":167,"x_max":624,"o":"m 576 453 l 214 453 l 214 0 l 167 0 l 167 951 l 214 951 l 214 500 l 576 500 l 576 951 l 624 951 l 624 0 l 576 0 l 576 453 m 394 1210 l 585 1019 l 554 990 l 394 1149 l 236 990 l 206 1019 l 394 1210 z "},"ĥ":{"ha":599,"x_min":-54,"x_max":488,"o":"m 158 539 q 220 588 182 569 q 308 607 258 607 q 436 554 385 607 q 488 413 488 501 l 488 0 l 440 0 l 440 413 q 402 521 440 482 q 308 560 364 560 q 218 535 258 560 q 158 468 178 510 l 158 0 l 111 0 l 111 951 l 158 951 l 158 539 m 135 1263 l 325 1072 l 294 1043 l 135 1201 l -24 1043 l -54 1072 l 135 1263 z "},"Ħ":{"ha":790,"x_min":86,"x_max":707,"o":"m 576 453 l 214 453 l 214 0 l 167 0 l 167 703 l 86 703 l 86 746 l 167 746 l 167 951 l 214 951 l 214 746 l 576 746 l 576 951 l 624 951 l 624 746 l 707 746 l 707 703 l 624 703 l 624 0 l 576 0 l 576 453 m 576 703 l 214 703 l 214 500 l 576 500 l 576 703 z "},"ħ":{"ha":599,"x_min":0,"x_max":488,"o":"m 443 800 l 443 757 l 158 757 l 158 539 q 220 588 182 569 q 308 607 258 607 q 436 554 385 607 q 488 413 488 501 l 488 0 l 440 0 l 440 413 q 402 521 440 482 q 308 560 364 560 q 218 535 258 560 q 158 468 178 510 l 158 0 l 111 0 l 111 757 l 0 757 l 0 800 l 111 800 l 111 951 l 158 951 l 158 800 l 443 800 z "},"Ĩ":{"ha":381,"x_min":-32,"x_max":414,"o":"m 167 951 l 214 951 l 214 0 l 167 0 l 167 951 m 288 1033 q 231 1046 254 1033 q 178 1083 207 1058 q 135 1113 154 1103 q 94 1124 117 1124 q 34 1100 57 1124 q 11 1039 11 1076 l -32 1039 l -32 1043 q 3 1131 -32 1096 q 94 1167 39 1167 q 151 1154 128 1167 q 204 1117 174 1142 q 247 1087 228 1097 q 288 1076 265 1076 q 348 1101 325 1076 q 371 1163 371 1125 l 414 1163 l 414 1158 q 378 1069 414 1104 q 288 1033 343 1033 z "},"ĩ":{"ha":269,"x_min":-87,"x_max":358,"o":"m 111 588 l 158 588 l 158 0 l 111 0 l 111 588 m 232 711 q 175 724 199 711 q 122 761 151 736 q 80 791 99 781 q 39 801 61 801 q -22 778 1 801 q -44 717 -44 754 l -87 717 l -87 721 q -52 809 -87 774 q 39 844 -17 844 q 95 832 72 844 q 149 794 118 819 q 191 765 172 775 q 232 754 210 754 q 292 778 269 754 q 315 840 315 803 l 358 840 l 358 836 q 323 747 358 782 q 232 711 288 711 z "},"Ī":{"ha":381,"x_min":-31,"x_max":413,"o":"m 167 951 l 214 951 l 214 0 l 167 0 l 167 951 m -31 1079 l -31 1122 l 413 1122 l 413 1079 l -31 1079 z "},"ī":{"ha":269,"x_min":-86,"x_max":357,"o":"m 111 588 l 158 588 l 158 0 l 111 0 l 111 588 m -86 756 l -86 799 l 357 799 l 357 756 l -86 756 z "},"Ĭ":{"ha":381,"x_min":-50,"x_max":432,"o":"m 167 951 l 214 951 l 214 0 l 167 0 l 167 951 m 432 1138 q 320 1063 383 1089 q 190 1038 257 1038 q 61 1063 124 1038 q -50 1138 -1 1089 l -19 1168 q 78 1103 24 1125 q 192 1081 133 1081 q 304 1103 250 1081 q 401 1168 358 1125 l 432 1138 z "},"ĭ":{"ha":269,"x_min":-106,"x_max":376,"o":"m 111 588 l 158 588 l 158 0 l 111 0 l 111 588 m 376 814 q 265 740 328 765 q 135 714 201 714 q 6 740 68 714 q -106 814 -57 765 l -75 844 q 23 779 -32 801 q 136 757 78 757 q 249 779 194 757 q 346 844 303 801 l 376 814 z "},"Į":{"ha":381,"x_min":51,"x_max":214,"o":"m 214 951 l 214 0 q 133 -33 167 0 q 99 -114 99 -67 q 133 -195 99 -161 q 214 -229 167 -229 l 214 -276 q 99 -228 147 -276 q 51 -114 51 -181 q 84 -17 51 -60 q 167 40 117 25 l 167 951 l 214 951 z "},"į":{"ha":269,"x_min":-4,"x_max":158,"o":"m 158 838 l 158 718 l 111 718 l 111 838 l 158 838 m 111 588 l 158 588 l 158 0 q 77 -33 111 0 q 43 -114 43 -67 q 77 -195 43 -161 q 158 -229 111 -229 l 158 -276 q 44 -228 92 -276 q -4 -114 -4 -181 q 28 -17 -4 -60 q 111 40 61 25 l 111 588 z "},"İ":{"ha":381,"x_min":147,"x_max":233,"o":"m 167 951 l 214 951 l 214 0 l 167 0 l 167 951 m 190 1143 q 221 1131 208 1143 q 233 1100 233 1118 q 221 1069 233 1082 q 190 1057 208 1057 q 160 1069 172 1057 q 147 1100 147 1082 q 160 1131 147 1118 q 190 1143 172 1143 z "},"ı":{"ha":269,"x_min":111,"x_max":158,"o":"m 111 588 l 158 588 l 158 0 l 111 0 l 111 588 z "},"Ĳ":{"ha":858,"x_min":167,"x_max":692,"o":"m 167 951 l 214 951 l 214 0 l 167 0 l 167 951 m 692 246 q 658 106 692 164 q 566 17 624 47 q 438 -14 508 -14 q 401 -8 414 -14 l 401 43 q 438 36 414 36 q 586 92 528 36 q 644 246 644 149 l 644 951 l 692 951 l 692 246 z "},"ĳ":{"ha":539,"x_min":111,"x_max":428,"o":"m 111 838 l 158 838 l 158 718 l 111 718 l 111 838 m 111 588 l 158 588 l 158 0 l 111 0 l 111 588 m 381 838 l 428 838 l 428 718 l 381 718 l 381 838 m 428 -131 q 388 -237 428 -199 q 286 -276 347 -276 q 269 -275 276 -276 l 269 -225 l 286 -226 q 354 -201 328 -226 q 381 -131 381 -175 l 381 588 l 428 588 l 428 -131 z "},"Ĵ":{"ha":478,"x_min":21,"x_max":476,"o":"m 311 246 q 277 106 311 164 q 185 17 243 47 q 57 -14 128 -14 q 21 -8 33 -14 l 21 43 q 57 36 33 36 q 206 92 147 36 q 264 246 264 149 l 264 951 l 311 951 l 311 246 m 286 1210 l 476 1019 l 446 990 l 286 1149 l 128 990 l 97 1019 l 286 1210 z "},"ĵ":{"ha":269,"x_min":-54,"x_max":325,"o":"m 158 -131 q 118 -237 158 -199 q 17 -276 78 -276 q 0 -275 7 -276 l 0 -225 l 17 -226 q 85 -201 58 -226 q 111 -131 111 -175 l 111 588 l 158 588 l 158 -131 m 135 899 l 325 708 l 294 679 l 135 838 l -24 679 l -54 708 l 135 899 z "},"Ķ":{"ha":579,"x_min":167,"x_max":558,"o":"m 222 464 l 214 450 l 214 0 l 167 0 l 167 951 l 214 951 l 214 542 l 456 951 l 515 951 l 251 514 l 558 0 l 500 0 l 222 464 m 293 -69 l 364 -69 l 364 -199 l 293 -294 l 293 -69 z "},"ķ":{"ha":475,"x_min":111,"x_max":433,"o":"m 174 264 l 158 243 l 158 0 l 111 0 l 111 951 l 158 951 l 158 324 l 354 588 l 418 588 l 204 304 l 433 0 l 369 0 l 174 264 m 201 -69 l 272 -69 l 272 -199 l 201 -294 l 201 -69 z "},"ĸ":{"ha":475,"x_min":111,"x_max":433,"o":"m 174 264 l 158 243 l 158 0 l 111 0 l 111 588 l 158 588 l 158 324 l 354 588 l 418 588 l 204 304 l 433 0 l 369 0 l 174 264 z "},"Ĺ":{"ha":553,"x_min":167,"x_max":532,"o":"m 167 951 l 214 951 l 214 47 l 532 47 l 532 0 l 167 0 l 167 951 m 435 1210 l 465 1179 l 276 990 l 246 1019 l 435 1210 z "},"ĺ":{"ha":269,"x_min":25,"x_max":244,"o":"m 111 951 l 158 951 l 158 0 l 111 0 l 111 951 m 214 1251 l 244 1221 l 56 1032 l 25 1061 l 214 1251 z "},"Ļ":{"ha":553,"x_min":167,"x_max":532,"o":"m 167 951 l 214 951 l 214 47 l 532 47 l 532 0 l 167 0 l 167 951 m 313 -69 l 383 -69 l 383 -199 l 313 -294 l 313 -69 z "},"ļ":{"ha":269,"x_min":99,"x_max":169,"o":"m 111 951 l 158 951 l 158 0 l 111 0 l 111 951 m 99 -69 l 169 -69 l 169 -199 l 99 -294 l 99 -69 z "},"Ľ":{"ha":553,"x_min":167,"x_max":532,"o":"m 167 951 l 214 951 l 214 47 l 532 47 l 532 0 l 167 0 l 167 951 m 432 951 l 503 951 l 503 860 l 432 694 l 432 951 z "},"ľ":{"ha":269,"x_min":111,"x_max":304,"o":"m 111 951 l 158 951 l 158 0 l 111 0 l 111 951 m 233 951 l 304 951 l 304 860 l 233 694 l 233 951 z "},"Ŀ":{"ha":553,"x_min":167,"x_max":532,"o":"m 167 951 l 214 951 l 214 47 l 532 47 l 532 0 l 167 0 l 167 951 m 432 546 l 503 546 l 503 403 l 432 403 l 432 546 z "},"ŀ":{"ha":368,"x_min":111,"x_max":354,"o":"m 111 951 l 158 951 l 158 0 l 111 0 l 111 951 m 283 364 l 354 364 l 354 221 l 283 221 l 283 364 z "},"Ł":{"ha":553,"x_min":42,"x_max":532,"o":"m 167 436 l 42 383 l 42 435 l 167 488 l 167 951 l 214 951 l 214 508 l 372 576 l 372 525 l 214 457 l 214 47 l 532 47 l 532 0 l 167 0 l 167 436 z "},"ł":{"ha":269,"x_min":0,"x_max":269,"o":"m 111 258 l 0 210 l 0 261 l 111 310 l 111 951 l 158 951 l 158 329 l 269 378 l 269 326 l 158 278 l 158 0 l 111 0 l 111 258 z "},"Ń":{"ha":831,"x_min":167,"x_max":664,"o":"m 214 0 l 167 0 l 167 978 l 617 156 l 617 951 l 664 951 l 664 -26 l 214 789 l 214 0 m 494 1210 l 525 1179 l 336 990 l 306 1019 l 494 1210 z "},"ń":{"ha":599,"x_min":111,"x_max":488,"o":"m 158 539 q 220 588 182 569 q 308 607 258 607 q 436 554 385 607 q 488 413 488 501 l 488 0 l 440 0 l 440 413 q 402 521 440 482 q 308 560 364 560 q 218 535 258 560 q 158 468 178 510 l 158 0 l 111 0 l 111 588 l 158 588 l 158 539 m 378 888 l 408 857 l 219 668 l 189 697 l 378 888 z "},"Ņ":{"ha":831,"x_min":167,"x_max":664,"o":"m 214 0 l 167 0 l 167 978 l 617 156 l 617 951 l 664 951 l 664 -26 l 214 789 l 214 0 m 379 -69 l 450 -69 l 450 -199 l 379 -294 l 379 -69 z "},"ņ":{"ha":599,"x_min":111,"x_max":488,"o":"m 158 539 q 220 588 182 569 q 308 607 258 607 q 436 554 385 607 q 488 413 488 501 l 488 0 l 440 0 l 440 413 q 402 521 440 482 q 308 560 364 560 q 218 535 258 560 q 158 468 178 510 l 158 0 l 111 0 l 111 588 l 158 588 l 158 539 m 264 -69 l 335 -69 l 335 -199 l 264 -294 l 264 -69 z "},"Ň":{"ha":831,"x_min":167,"x_max":664,"o":"m 214 0 l 167 0 l 167 978 l 617 156 l 617 951 l 664 951 l 664 -26 l 214 789 l 214 0 m 414 990 l 225 1179 l 256 1210 l 414 1050 l 574 1210 l 604 1179 l 414 990 z "},"ň":{"ha":599,"x_min":110,"x_max":489,"o":"m 158 539 q 220 588 182 569 q 308 607 258 607 q 436 554 385 607 q 488 413 488 501 l 488 0 l 440 0 l 440 413 q 402 521 440 482 q 308 560 364 560 q 218 535 258 560 q 158 468 178 510 l 158 0 l 111 0 l 111 588 l 158 588 l 158 539 m 299 658 l 110 847 l 140 878 l 299 718 l 458 878 l 489 847 l 299 658 z "},"ŉ":{"ha":599,"x_min":111,"x_max":488,"o":"m 158 539 q 220 588 182 569 q 308 607 258 607 q 436 554 385 607 q 488 413 488 501 l 488 0 l 440 0 l 440 413 q 402 521 440 482 q 308 560 364 560 q 218 535 258 560 q 158 468 178 510 l 158 0 l 111 0 l 111 588 l 158 588 l 158 539 m 111 951 l 182 951 l 182 860 l 111 694 l 111 951 z "},"Ŋ":{"ha":831,"x_min":167,"x_max":664,"o":"m 410 -271 q 374 -265 386 -271 l 374 -214 q 410 -221 386 -221 q 558 -165 500 -221 q 617 -11 617 -108 l 617 58 l 214 789 l 214 0 l 167 0 l 167 978 l 617 156 l 617 951 l 664 951 l 664 -11 q 630 -151 664 -93 q 538 -240 596 -210 q 410 -271 481 -271 z "},"ŋ":{"ha":599,"x_min":111,"x_max":488,"o":"m 158 588 l 158 539 q 220 588 182 569 q 308 607 258 607 q 436 554 385 607 q 488 413 488 501 l 488 -131 q 447 -237 488 -199 q 346 -276 407 -276 q 329 -275 336 -276 l 329 -225 l 346 -226 q 414 -201 388 -226 q 440 -131 440 -175 l 440 413 q 402 521 440 482 q 308 560 364 560 q 218 535 258 560 q 158 468 178 510 l 158 0 l 111 0 l 111 588 l 158 588 z "},"Ō":{"ha":1157,"x_min":83,"x_max":1074,"o":"m 579 -19 q 331 47 444 -19 q 150 227 217 114 q 83 475 83 340 q 150 724 83 610 q 331 904 217 838 q 579 971 444 971 q 827 904 714 971 q 1007 724 940 838 q 1074 475 1074 610 q 1007 227 1074 340 q 827 47 940 114 q 579 -19 714 -19 m 579 26 q 804 87 701 26 q 967 250 907 147 q 1028 475 1028 353 q 967 701 1028 597 q 804 865 907 804 q 579 925 701 925 q 353 865 457 925 q 190 701 250 804 q 129 475 129 597 q 190 250 129 353 q 353 87 250 147 q 579 26 457 26 m 357 1079 l 357 1122 l 800 1122 l 800 1079 l 357 1079 z "},"ō":{"ha":767,"x_min":69,"x_max":697,"o":"m 69 293 q 112 450 69 378 q 226 565 154 522 q 383 607 299 607 q 541 565 469 607 q 655 451 613 524 q 697 294 697 379 q 655 138 697 210 q 540 23 613 65 q 383 -19 468 -19 q 226 22 297 -19 q 112 136 154 64 q 69 293 69 208 m 383 28 q 517 64 456 28 q 614 161 578 100 q 650 294 650 222 q 614 427 650 367 q 517 524 578 488 q 383 560 456 560 q 250 524 311 560 q 153 426 189 488 q 117 293 117 365 q 153 160 117 221 q 250 64 189 100 q 383 28 311 28 m 161 756 l 161 799 l 604 799 l 604 756 l 161 756 z "},"Ŏ":{"ha":1157,"x_min":83,"x_max":1074,"o":"m 579 -19 q 331 47 444 -19 q 150 227 217 114 q 83 475 83 340 q 150 724 83 610 q 331 904 217 838 q 579 971 444 971 q 827 904 714 971 q 1007 724 940 838 q 1074 475 1074 610 q 1007 227 1074 340 q 827 47 940 114 q 579 -19 714 -19 m 579 26 q 804 87 701 26 q 967 250 907 147 q 1028 475 1028 353 q 967 701 1028 597 q 804 865 907 804 q 579 925 701 925 q 353 865 457 925 q 190 701 250 804 q 129 475 129 597 q 190 250 129 353 q 353 87 250 147 q 579 26 457 26 m 819 1138 q 708 1063 771 1089 q 578 1038 644 1038 q 449 1063 511 1038 q 338 1138 386 1089 l 368 1168 q 466 1103 411 1125 q 579 1081 521 1081 q 692 1103 638 1081 q 789 1168 746 1125 l 819 1138 z "},"ŏ":{"ha":767,"x_min":69,"x_max":697,"o":"m 69 293 q 112 450 69 378 q 226 565 154 522 q 383 607 299 607 q 541 565 469 607 q 655 451 613 524 q 697 294 697 379 q 655 138 697 210 q 540 23 613 65 q 383 -19 468 -19 q 226 22 297 -19 q 112 136 154 64 q 69 293 69 208 m 383 28 q 517 64 456 28 q 614 161 578 100 q 650 294 650 222 q 614 427 650 367 q 517 524 578 488 q 383 560 456 560 q 250 524 311 560 q 153 426 189 488 q 117 293 117 365 q 153 160 117 221 q 250 64 189 100 q 383 28 311 28 m 624 814 q 512 740 575 765 q 382 714 449 714 q 253 740 315 714 q 142 814 190 765 l 172 844 q 270 779 215 801 q 383 757 325 757 q 496 779 442 757 q 593 844 550 801 l 624 814 z "},"Ő":{"ha":1157,"x_min":83,"x_max":1074,"o":"m 579 -19 q 331 47 444 -19 q 150 227 217 114 q 83 475 83 340 q 150 724 83 610 q 331 904 217 838 q 579 971 444 971 q 827 904 714 971 q 1007 724 940 838 q 1074 475 1074 610 q 1007 227 1074 340 q 827 47 940 114 q 579 -19 714 -19 m 579 26 q 804 87 701 26 q 967 250 907 147 q 1028 475 1028 353 q 967 701 1028 597 q 804 865 907 804 q 579 925 701 925 q 353 865 457 925 q 190 701 250 804 q 129 475 129 597 q 190 250 129 353 q 353 87 250 147 q 579 26 457 26 m 419 1007 l 519 1211 l 558 1192 l 458 989 l 419 1007 m 599 1007 l 699 1211 l 738 1192 l 638 989 l 599 1007 z "},"ő":{"ha":767,"x_min":69,"x_max":697,"o":"m 69 293 q 112 450 69 378 q 226 565 154 522 q 383 607 299 607 q 541 565 469 607 q 655 451 613 524 q 697 294 697 379 q 655 138 697 210 q 540 23 613 65 q 383 -19 468 -19 q 226 22 297 -19 q 112 136 154 64 q 69 293 69 208 m 383 28 q 517 64 456 28 q 614 161 578 100 q 650 294 650 222 q 614 427 650 367 q 517 524 578 488 q 383 560 456 560 q 250 524 311 560 q 153 426 189 488 q 117 293 117 365 q 153 160 117 221 q 250 64 189 100 q 383 28 311 28 m 224 685 l 324 889 l 363 869 l 263 667 l 224 685 m 403 685 l 503 889 l 542 869 l 442 667 l 403 685 z "},"Œ":{"ha":1503,"x_min":83,"x_max":1392,"o":"m 1026 276 q 848 61 969 142 q 579 -19 726 -19 q 331 47 444 -19 q 150 228 217 114 q 83 475 83 342 q 150 724 83 610 q 331 904 217 838 q 579 971 444 971 q 848 890 726 971 q 1026 675 969 810 l 1026 951 l 1392 951 l 1392 904 l 1074 904 l 1074 500 l 1392 500 l 1392 453 l 1074 453 l 1074 47 l 1392 47 l 1392 0 l 1026 0 l 1026 276 m 579 26 q 804 87 701 26 q 967 250 907 147 q 1026 475 1026 353 q 967 700 1026 597 q 804 863 907 803 q 579 924 701 924 q 353 863 457 924 q 190 700 250 803 q 129 475 129 597 q 190 250 129 353 q 353 87 250 147 q 579 26 457 26 z "},"œ":{"ha":1182,"x_min":69,"x_max":1119,"o":"m 69 293 q 112 450 69 378 q 226 565 154 522 q 383 607 299 607 q 499 585 444 607 q 594 525 553 564 q 691 585 636 564 q 806 607 746 607 q 956 569 888 607 q 1068 460 1025 531 q 1118 300 1111 390 q 1119 269 1119 290 l 696 269 q 626 97 690 174 q 710 47 664 65 q 806 28 756 28 q 906 49 858 28 q 993 106 954 69 l 1026 72 q 926 5 983 29 q 806 -19 869 -19 q 692 2 746 -19 q 594 63 638 24 q 499 2 553 24 q 383 -19 444 -19 q 226 22 297 -19 q 112 136 154 64 q 69 293 69 208 m 383 28 q 517 64 456 28 q 614 161 578 100 q 650 294 650 222 q 614 427 650 367 q 517 524 578 488 q 383 560 456 560 q 250 524 311 560 q 153 426 189 488 q 117 293 117 365 q 153 160 117 221 q 250 64 189 100 q 383 28 311 28 m 1071 317 q 1031 435 1067 379 q 935 526 994 492 q 806 560 876 560 q 628 490 706 560 q 696 317 689 415 l 1071 317 z "},"Ŕ":{"ha":721,"x_min":167,"x_max":596,"o":"m 539 0 l 475 0 l 214 297 l 214 0 l 167 0 l 167 951 l 267 951 q 431 907 356 951 q 551 787 507 863 q 596 622 596 711 q 554 461 596 535 q 441 342 513 388 q 283 293 369 297 l 539 0 m 214 904 l 214 340 l 267 340 q 408 378 343 340 q 510 481 472 417 q 549 622 549 546 q 510 763 549 699 q 408 866 472 828 q 267 904 343 904 l 214 904 m 439 1210 l 469 1179 l 281 990 l 250 1019 l 439 1210 z "},"ŕ":{"ha":322,"x_min":93,"x_max":313,"o":"m 304 560 q 217 534 258 560 q 158 468 176 508 l 158 0 l 111 0 l 111 588 l 158 588 l 158 539 q 220 588 182 569 q 308 607 258 607 l 308 560 l 304 560 m 282 888 l 313 857 l 124 668 l 93 697 l 282 888 z "},"Ŗ":{"ha":721,"x_min":167,"x_max":596,"o":"m 539 0 l 475 0 l 214 297 l 214 0 l 167 0 l 167 951 l 267 951 q 431 907 356 951 q 551 787 507 863 q 596 622 596 711 q 554 461 596 535 q 441 342 513 388 q 283 293 369 297 l 539 0 m 214 904 l 214 340 l 267 340 q 408 378 343 340 q 510 481 472 417 q 549 622 549 546 q 510 763 549 699 q 408 866 472 828 q 267 904 343 904 l 214 904 m 325 -69 l 396 -69 l 396 -199 l 325 -294 l 325 -69 z "},"ŗ":{"ha":322,"x_min":99,"x_max":308,"o":"m 304 560 q 217 534 258 560 q 158 468 176 508 l 158 0 l 111 0 l 111 588 l 158 588 l 158 539 q 220 588 182 569 q 308 607 258 607 l 308 560 l 304 560 m 99 -69 l 169 -69 l 169 -199 l 99 -294 l 99 -69 z "},"Ř":{"ha":721,"x_min":167,"x_max":596,"o":"m 539 0 l 475 0 l 214 297 l 214 0 l 167 0 l 167 951 l 267 951 q 431 907 356 951 q 551 787 507 863 q 596 622 596 711 q 554 461 596 535 q 441 342 513 388 q 283 293 369 297 l 539 0 m 214 904 l 214 340 l 267 340 q 408 378 343 340 q 510 481 472 417 q 549 622 549 546 q 510 763 549 699 q 408 866 472 828 q 267 904 343 904 l 214 904 m 360 990 l 171 1179 l 201 1210 l 360 1050 l 519 1210 l 550 1179 l 360 990 z "},"ř":{"ha":322,"x_min":14,"x_max":393,"o":"m 304 560 q 217 534 258 560 q 158 468 176 508 l 158 0 l 111 0 l 111 588 l 158 588 l 158 539 q 220 588 182 569 q 308 607 258 607 l 308 560 l 304 560 m 203 658 l 14 847 l 44 878 l 203 718 l 363 878 l 393 847 l 203 658 z "},"Ś":{"ha":499,"x_min":104,"x_max":394,"o":"m 140 -14 q 104 -8 119 -14 l 104 42 q 140 36 122 36 q 290 97 233 36 q 346 250 346 157 q 321 360 346 314 q 244 471 296 407 q 163 589 190 536 q 135 717 135 642 q 166 845 135 789 q 253 933 197 901 q 378 964 308 964 l 385 964 l 385 915 l 378 915 q 239 860 294 915 q 183 718 183 804 q 208 607 183 654 q 285 496 233 560 q 367 375 339 429 q 394 244 394 321 q 363 110 394 169 q 273 19 331 51 q 140 -14 215 -14 m 328 1210 l 358 1179 l 169 990 l 139 1019 l 328 1210 z "},"ś":{"ha":322,"x_min":51,"x_max":271,"o":"m 92 -14 q 69 -11 78 -14 l 69 36 q 92 33 78 33 q 174 67 143 33 q 206 153 206 101 q 190 219 206 190 q 143 288 175 247 q 91 366 108 332 q 74 447 74 400 q 117 560 74 517 q 228 604 161 604 l 232 604 l 232 558 l 228 558 q 151 528 182 558 q 121 449 121 497 q 136 383 121 411 q 182 315 151 356 q 235 235 218 269 q 253 153 253 201 q 208 33 253 81 q 92 -14 163 -14 m 240 888 l 271 857 l 82 668 l 51 697 l 240 888 z "},"Ŝ":{"ha":499,"x_min":60,"x_max":439,"o":"m 140 -14 q 104 -8 119 -14 l 104 42 q 140 36 122 36 q 290 97 233 36 q 346 250 346 157 q 321 360 346 314 q 244 471 296 407 q 163 589 190 536 q 135 717 135 642 q 166 845 135 789 q 253 933 197 901 q 378 964 308 964 l 385 964 l 385 915 l 378 915 q 239 860 294 915 q 183 718 183 804 q 208 607 183 654 q 285 496 233 560 q 367 375 339 429 q 394 244 394 321 q 363 110 394 169 q 273 19 331 51 q 140 -14 215 -14 m 249 1210 l 439 1019 l 408 990 l 249 1149 l 90 990 l 60 1019 l 249 1210 z "},"ŝ":{"ha":322,"x_min":-28,"x_max":351,"o":"m 92 -14 q 69 -11 78 -14 l 69 36 q 92 33 78 33 q 174 67 143 33 q 206 153 206 101 q 190 219 206 190 q 143 288 175 247 q 91 366 108 332 q 74 447 74 400 q 117 560 74 517 q 228 604 161 604 l 232 604 l 232 558 l 228 558 q 151 528 182 558 q 121 449 121 497 q 136 383 121 411 q 182 315 151 356 q 235 235 218 269 q 253 153 253 201 q 208 33 253 81 q 92 -14 163 -14 m 161 899 l 351 708 l 321 679 l 161 838 l 3 679 l -28 708 l 161 899 z "},"Ş":{"ha":499,"x_min":104,"x_max":394,"o":"m 140 -14 q 104 -8 119 -14 l 104 42 q 140 36 122 36 q 290 97 233 36 q 346 250 346 157 q 321 360 346 314 q 244 471 296 407 q 163 589 190 536 q 135 717 135 642 q 166 845 135 789 q 253 933 197 901 q 378 964 308 964 l 385 964 l 385 915 l 378 915 q 239 860 294 915 q 183 718 183 804 q 208 607 183 654 q 285 496 233 560 q 367 375 339 429 q 394 244 394 321 q 363 110 394 169 q 273 19 331 51 q 140 -14 215 -14 m 213 -242 q 256 -139 256 -200 q 213 -35 256 -78 l 247 0 q 290 -65 275 -29 q 304 -139 304 -101 q 290 -212 304 -176 q 247 -276 275 -249 l 213 -242 z "},"ş":{"ha":322,"x_min":69,"x_max":253,"o":"m 92 -14 q 69 -11 78 -14 l 69 36 q 92 33 78 33 q 174 67 143 33 q 206 153 206 101 q 190 219 206 190 q 143 288 175 247 q 91 366 108 332 q 74 447 74 400 q 117 560 74 517 q 228 604 161 604 l 232 604 l 232 558 l 228 558 q 151 528 182 558 q 121 449 121 497 q 136 383 121 411 q 182 315 151 356 q 235 235 218 269 q 253 153 253 201 q 208 33 253 81 q 92 -14 163 -14 m 126 -242 q 169 -139 169 -200 q 126 -35 169 -78 l 161 0 q 203 -65 189 -29 q 218 -139 218 -101 q 203 -212 218 -176 q 161 -276 189 -249 l 126 -242 z "},"Š":{"ha":499,"x_min":60,"x_max":439,"o":"m 140 -14 q 104 -8 119 -14 l 104 42 q 140 36 122 36 q 290 97 233 36 q 346 250 346 157 q 321 360 346 314 q 244 471 296 407 q 163 589 190 536 q 135 717 135 642 q 166 845 135 789 q 253 933 197 901 q 378 964 308 964 l 385 964 l 385 915 l 378 915 q 239 860 294 915 q 183 718 183 804 q 208 607 183 654 q 285 496 233 560 q 367 375 339 429 q 394 244 394 321 q 363 110 394 169 q 273 19 331 51 q 140 -14 215 -14 m 249 990 l 60 1179 l 90 1210 l 249 1050 l 408 1210 l 439 1179 l 249 990 z "},"š":{"ha":322,"x_min":-28,"x_max":351,"o":"m 92 -14 q 69 -11 78 -14 l 69 36 q 92 33 78 33 q 174 67 143 33 q 206 153 206 101 q 190 219 206 190 q 143 288 175 247 q 91 366 108 332 q 74 447 74 400 q 117 560 74 517 q 228 604 161 604 l 232 604 l 232 558 l 228 558 q 151 528 182 558 q 121 449 121 497 q 136 383 121 411 q 182 315 151 356 q 235 235 218 269 q 253 153 253 201 q 208 33 253 81 q 92 -14 163 -14 m 161 658 l -28 847 l 3 878 l 161 718 l 321 878 l 351 847 l 161 658 z "},"Ţ":{"ha":549,"x_min":21,"x_max":528,"o":"m 294 0 l 247 0 l 247 904 l 21 904 l 21 951 l 528 951 l 528 904 l 294 904 l 294 0 m 239 -69 l 310 -69 l 310 -199 l 239 -294 l 239 -69 z "},"ţ":{"ha":344,"x_min":49,"x_max":310,"o":"m 196 540 l 196 0 l 149 0 l 149 540 l 49 540 l 49 588 l 149 588 l 149 807 l 196 835 l 196 588 l 310 588 l 310 540 l 196 540 m 138 -69 l 208 -69 l 208 -199 l 138 -294 l 138 -69 z "},"Ť":{"ha":549,"x_min":21,"x_max":528,"o":"m 294 0 l 247 0 l 247 904 l 21 904 l 21 951 l 528 951 l 528 904 l 294 904 l 294 0 m 274 990 l 85 1179 l 115 1210 l 274 1050 l 433 1210 l 464 1179 l 274 990 z "},"ť":{"ha":344,"x_min":49,"x_max":358,"o":"m 196 540 l 196 0 l 149 0 l 149 540 l 49 540 l 49 588 l 149 588 l 149 807 l 196 835 l 196 588 l 310 588 l 310 540 l 196 540 m 288 951 l 358 951 l 358 860 l 288 694 l 288 951 z "},"Ŧ":{"ha":549,"x_min":21,"x_max":528,"o":"m 294 429 l 294 0 l 247 0 l 247 429 l 51 429 l 51 472 l 247 472 l 247 904 l 21 904 l 21 951 l 528 951 l 528 904 l 294 904 l 294 472 l 494 472 l 494 429 l 294 429 z "},"ŧ":{"ha":344,"x_min":49,"x_max":310,"o":"m 196 249 l 196 0 l 149 0 l 149 249 l 51 249 l 51 292 l 149 292 l 149 540 l 49 540 l 49 588 l 149 588 l 149 807 l 196 835 l 196 588 l 310 588 l 310 540 l 196 540 l 196 292 l 308 292 l 308 249 l 196 249 z "},"Ũ":{"ha":838,"x_min":167,"x_max":671,"o":"m 418 -12 q 292 22 350 -12 q 201 113 235 56 q 167 239 167 171 l 167 951 l 214 951 l 214 239 q 242 136 214 183 q 316 61 269 89 q 418 33 363 33 q 521 61 474 33 q 596 136 568 89 q 624 239 624 183 l 624 951 l 671 951 l 671 239 q 637 113 671 171 q 544 22 603 56 q 418 -12 486 -12 m 515 1033 q 458 1046 482 1033 q 406 1083 435 1058 q 363 1113 382 1103 q 322 1124 344 1124 q 262 1100 285 1124 q 239 1039 239 1076 l 196 1039 l 196 1043 q 231 1131 196 1096 q 322 1167 267 1167 q 378 1154 356 1167 q 432 1117 401 1142 q 474 1087 456 1097 q 515 1076 493 1076 q 576 1101 553 1076 q 599 1163 599 1125 l 642 1163 l 642 1158 q 606 1069 642 1104 q 515 1033 571 1033 z "},"ũ":{"ha":599,"x_min":76,"x_max":522,"o":"m 440 47 q 378 -1 417 17 q 290 -19 339 -19 q 163 33 214 -19 q 111 175 111 86 l 111 588 l 158 588 l 158 175 q 197 67 158 106 q 290 28 235 28 q 380 53 339 28 q 440 118 421 78 l 440 588 l 488 588 l 488 0 l 440 0 l 440 47 m 396 711 q 339 724 363 711 q 286 761 315 736 q 244 791 263 781 q 203 801 225 801 q 142 778 165 801 q 119 717 119 754 l 76 717 l 76 721 q 112 809 76 774 q 203 844 147 844 q 259 832 236 844 q 313 794 282 819 q 355 765 336 775 q 396 754 374 754 q 456 778 433 754 q 479 840 479 803 l 522 840 l 522 836 q 487 747 522 782 q 396 711 451 711 z "},"Ū":{"ha":838,"x_min":167,"x_max":671,"o":"m 418 -12 q 292 22 350 -12 q 201 113 235 56 q 167 239 167 171 l 167 951 l 214 951 l 214 239 q 242 136 214 183 q 316 61 269 89 q 418 33 363 33 q 521 61 474 33 q 596 136 568 89 q 624 239 624 183 l 624 951 l 671 951 l 671 239 q 637 113 671 171 q 544 22 603 56 q 418 -12 486 -12 m 197 1079 l 197 1122 l 640 1122 l 640 1079 l 197 1079 z "},"ū":{"ha":599,"x_min":78,"x_max":521,"o":"m 440 47 q 378 -1 417 17 q 290 -19 339 -19 q 163 33 214 -19 q 111 175 111 86 l 111 588 l 158 588 l 158 175 q 197 67 158 106 q 290 28 235 28 q 380 53 339 28 q 440 118 421 78 l 440 588 l 488 588 l 488 0 l 440 0 l 440 47 m 78 756 l 78 799 l 521 799 l 521 756 l 78 756 z "},"Ŭ":{"ha":838,"x_min":167,"x_max":671,"o":"m 418 -12 q 292 22 350 -12 q 201 113 235 56 q 167 239 167 171 l 167 951 l 214 951 l 214 239 q 242 136 214 183 q 316 61 269 89 q 418 33 363 33 q 521 61 474 33 q 596 136 568 89 q 624 239 624 183 l 624 951 l 671 951 l 671 239 q 637 113 671 171 q 544 22 603 56 q 418 -12 486 -12 m 660 1138 q 548 1063 611 1089 q 418 1038 485 1038 q 289 1063 351 1038 q 178 1138 226 1089 l 208 1168 q 306 1103 251 1125 q 419 1081 361 1081 q 532 1103 478 1081 q 629 1168 586 1125 l 660 1138 z "},"ŭ":{"ha":599,"x_min":58,"x_max":540,"o":"m 440 47 q 378 -1 417 17 q 290 -19 339 -19 q 163 33 214 -19 q 111 175 111 86 l 111 588 l 158 588 l 158 175 q 197 67 158 106 q 290 28 235 28 q 380 53 339 28 q 440 118 421 78 l 440 588 l 488 588 l 488 0 l 440 0 l 440 47 m 540 814 q 428 740 492 765 q 299 714 365 714 q 169 740 232 714 q 58 814 107 765 l 89 844 q 187 779 132 801 q 300 757 242 757 q 413 779 358 757 q 510 844 467 801 l 540 814 z "},"Ů":{"ha":838,"x_min":167,"x_max":671,"o":"m 418 -12 q 292 22 350 -12 q 201 113 235 56 q 167 239 167 171 l 167 951 l 214 951 l 214 239 q 242 136 214 183 q 316 61 269 89 q 418 33 363 33 q 521 61 474 33 q 596 136 568 89 q 624 239 624 183 l 624 951 l 671 951 l 671 239 q 637 113 671 171 q 544 22 603 56 q 418 -12 486 -12 m 417 985 q 319 1025 360 985 q 279 1122 279 1065 q 319 1219 279 1179 q 417 1260 360 1260 q 514 1219 474 1260 q 554 1122 554 1179 q 514 1025 554 1065 q 417 985 474 985 m 417 1221 q 347 1192 376 1221 q 318 1122 318 1163 q 347 1053 318 1082 q 417 1024 376 1024 q 486 1053 457 1024 q 515 1122 515 1082 q 486 1192 515 1163 q 417 1221 457 1221 z "},"ů":{"ha":599,"x_min":111,"x_max":488,"o":"m 440 47 q 378 -1 417 17 q 290 -19 339 -19 q 163 33 214 -19 q 111 175 111 86 l 111 588 l 158 588 l 158 175 q 197 67 158 106 q 290 28 235 28 q 380 53 339 28 q 440 118 421 78 l 440 588 l 488 588 l 488 0 l 440 0 l 440 47 m 299 642 q 201 682 242 642 q 161 779 161 722 q 201 876 161 836 q 299 917 242 917 q 396 876 356 917 q 436 779 436 836 q 396 682 436 722 q 299 642 356 642 m 299 878 q 229 849 258 878 q 200 779 200 819 q 229 710 200 739 q 299 681 258 681 q 368 710 339 681 q 397 779 397 739 q 368 849 397 819 q 299 878 339 878 z "},"Ű":{"ha":838,"x_min":167,"x_max":671,"o":"m 418 -12 q 292 22 350 -12 q 201 113 235 56 q 167 239 167 171 l 167 951 l 214 951 l 214 239 q 242 136 214 183 q 316 61 269 89 q 418 33 363 33 q 521 61 474 33 q 596 136 568 89 q 624 239 624 183 l 624 951 l 671 951 l 671 239 q 637 113 671 171 q 544 22 603 56 q 418 -12 486 -12 m 260 1007 l 360 1211 l 399 1192 l 299 989 l 260 1007 m 439 1007 l 539 1211 l 578 1192 l 478 989 l 439 1007 z "},"ű":{"ha":599,"x_min":111,"x_max":488,"o":"m 440 47 q 378 -1 417 17 q 290 -19 339 -19 q 163 33 214 -19 q 111 175 111 86 l 111 588 l 158 588 l 158 175 q 197 67 158 106 q 290 28 235 28 q 380 53 339 28 q 440 118 421 78 l 440 588 l 488 588 l 488 0 l 440 0 l 440 47 m 140 685 l 240 889 l 279 869 l 179 667 l 140 685 m 319 685 l 419 889 l 458 869 l 358 667 l 319 685 z "},"Ų":{"ha":838,"x_min":167,"x_max":671,"o":"m 671 951 l 671 239 q 617 85 671 153 q 482 -4 564 17 q 422 -46 446 -15 q 399 -114 399 -76 q 433 -195 399 -161 q 514 -229 467 -229 l 514 -276 q 399 -228 447 -276 q 351 -114 351 -181 q 392 -11 351 -56 q 276 30 326 -6 q 196 120 225 65 q 167 239 167 175 l 167 951 l 214 951 l 214 239 q 242 136 214 183 q 316 61 269 89 q 418 33 363 33 q 521 61 474 33 q 596 136 568 89 q 624 239 624 183 l 624 951 l 671 951 z "},"ų":{"ha":599,"x_min":111,"x_max":488,"o":"m 485 0 q 406 -33 439 0 q 372 -114 372 -65 q 406 -195 372 -161 q 488 -229 440 -229 l 488 -276 q 373 -231 421 -276 q 325 -122 325 -186 q 358 -34 325 -75 q 440 25 390 7 l 440 61 q 378 4 418 28 q 290 -19 338 -19 q 163 33 214 -19 q 111 175 111 86 l 111 588 l 158 588 l 158 175 q 197 67 158 106 q 290 28 235 28 q 380 53 339 28 q 440 118 421 78 l 440 588 l 488 588 l 488 0 l 485 0 z "},"Ŵ":{"ha":1136,"x_min":21,"x_max":1115,"o":"m 568 794 l 335 -29 l 21 951 l 72 951 l 332 126 l 565 951 l 571 951 l 804 126 l 1064 951 l 1115 951 l 801 -29 l 568 794 m 568 1210 l 758 1019 l 728 990 l 568 1149 l 410 990 l 379 1019 l 568 1210 z "},"ŵ":{"ha":814,"x_min":14,"x_max":800,"o":"m 749 588 l 800 588 l 563 -29 l 407 446 l 251 -29 l 14 588 l 65 588 l 249 107 l 406 588 l 408 588 l 565 107 l 749 588 m 406 899 l 596 708 l 565 679 l 406 838 l 247 679 l 217 708 l 406 899 z "},"Ŷ":{"ha":776,"x_min":21,"x_max":756,"o":"m 411 0 l 364 0 l 364 382 l 21 951 l 76 951 l 389 433 l 700 951 l 756 951 l 411 381 l 411 0 m 388 1210 l 578 1019 l 547 990 l 388 1149 l 229 990 l 199 1019 l 388 1210 z "},"ŷ":{"ha":503,"x_min":14,"x_max":489,"o":"m 65 588 l 251 97 l 438 588 l 489 588 l 165 -257 l 114 -257 l 228 35 l 14 588 l 65 588 m 250 899 l 440 708 l 410 679 l 250 838 l 92 679 l 61 708 l 250 899 z "},"Ÿ":{"ha":776,"x_min":21,"x_max":756,"o":"m 411 0 l 364 0 l 364 382 l 21 951 l 76 951 l 389 433 l 700 951 l 756 951 l 411 381 l 411 0 m 281 1143 q 311 1131 299 1143 q 324 1100 324 1118 q 311 1069 324 1082 q 281 1057 299 1057 q 250 1069 263 1057 q 238 1100 238 1082 q 250 1131 238 1118 q 281 1143 263 1143 m 496 1143 q 526 1131 514 1143 q 539 1100 539 1118 q 526 1069 539 1082 q 496 1057 514 1057 q 465 1069 478 1057 q 453 1100 453 1082 q 465 1131 453 1118 q 496 1143 478 1143 z "},"Ź":{"ha":601,"x_min":51,"x_max":550,"o":"m 475 904 l 64 904 l 64 951 l 550 951 l 126 47 l 550 47 l 550 0 l 51 0 l 475 904 m 379 1210 l 410 1179 l 221 990 l 190 1019 l 379 1210 z "},"ź":{"ha":468,"x_min":46,"x_max":422,"o":"m 340 540 l 58 540 l 58 588 l 422 588 l 126 47 l 422 47 l 422 0 l 46 0 l 340 540 m 313 888 l 343 857 l 154 668 l 124 697 l 313 888 z "},"Ż":{"ha":601,"x_min":51,"x_max":550,"o":"m 475 904 l 64 904 l 64 951 l 550 951 l 126 47 l 550 47 l 550 0 l 51 0 l 475 904 m 304 1143 q 335 1131 322 1143 q 347 1100 347 1118 q 335 1069 347 1082 q 304 1057 322 1057 q 274 1069 286 1057 q 261 1100 261 1082 q 274 1131 261 1118 q 304 1143 286 1143 z "},"ż":{"ha":468,"x_min":46,"x_max":422,"o":"m 340 540 l 58 540 l 58 588 l 422 588 l 126 47 l 422 47 l 422 0 l 46 0 l 340 540 m 233 821 q 264 808 251 821 q 276 778 276 796 q 264 747 276 760 q 233 735 251 735 q 203 747 215 735 q 190 778 190 760 q 203 808 190 796 q 233 821 215 821 z "},"Ž":{"ha":601,"x_min":51,"x_max":550,"o":"m 475 904 l 64 904 l 64 951 l 550 951 l 126 47 l 550 47 l 550 0 l 51 0 l 475 904 m 300 990 l 111 1179 l 142 1210 l 300 1050 l 460 1210 l 490 1179 l 300 990 z "},"ž":{"ha":468,"x_min":44,"x_max":424,"o":"m 340 540 l 58 540 l 58 588 l 422 588 l 126 47 l 422 47 l 422 0 l 46 0 l 340 540 m 233 658 l 44 847 l 75 878 l 233 718 l 393 878 l 424 847 l 233 658 z "},"ƒ":{"ha":693,"x_min":83,"x_max":610,"o":"m 324 499 l 324 704 q 398 898 324 832 q 585 964 472 964 l 592 964 l 592 915 l 585 915 q 428 856 483 915 q 374 704 374 797 l 374 499 l 610 499 l 610 451 l 374 451 l 374 250 q 340 107 374 167 q 248 17 306 47 q 119 -14 190 -14 q 83 -8 96 -14 l 83 43 q 119 36 96 36 q 267 94 210 36 q 324 250 324 153 l 324 451 l 83 451 l 83 499 l 324 499 z "},"Ǽ":{"ha":1136,"x_min":21,"x_max":1025,"o":"m 657 951 l 1025 951 l 1025 904 l 706 904 l 706 500 l 1025 500 l 1025 453 l 706 453 l 706 47 l 1025 47 l 1025 0 l 660 0 l 660 176 l 199 176 l 82 0 l 21 0 l 657 951 m 660 871 l 224 215 l 660 215 l 660 871 m 763 1210 l 793 1179 l 604 990 l 574 1019 l 763 1210 z "},"ǽ":{"ha":1182,"x_min":69,"x_max":1119,"o":"m 69 293 q 112 450 69 378 q 226 565 154 522 q 383 607 299 607 q 571 543 485 607 l 571 588 l 618 588 l 618 543 q 806 607 701 607 q 956 569 886 607 q 1068 462 1025 531 q 1118 304 1111 393 l 1119 269 l 618 269 l 618 106 q 705 49 657 69 q 806 28 753 28 q 906 49 858 28 q 993 106 954 69 l 1026 72 q 926 5 983 29 q 806 -19 869 -19 q 618 44 701 -19 l 618 0 l 571 0 l 571 43 q 383 -19 486 -19 q 226 22 297 -19 q 112 136 154 64 q 69 293 69 208 m 571 482 q 484 539 532 518 q 383 560 436 560 q 250 524 311 560 q 153 426 189 488 q 117 293 117 365 q 153 160 117 221 q 250 64 189 100 q 383 28 311 28 q 484 49 436 28 q 571 106 532 69 l 571 482 m 1071 317 q 1028 438 1065 382 q 933 527 992 494 q 806 560 874 560 q 705 539 756 560 q 618 482 654 518 l 618 317 l 1071 317 m 674 888 l 704 857 l 515 668 l 485 697 l 674 888 z "},"Ǿ":{"ha":1157,"x_min":83,"x_max":1074,"o":"m 944 808 q 1040 656 1006 742 q 1074 475 1074 571 q 1007 227 1074 340 q 827 47 940 114 q 579 -19 714 -19 q 397 15 483 -19 q 244 111 311 49 l 149 13 l 115 46 l 211 144 q 117 296 150 211 q 83 475 83 381 q 150 724 83 610 q 331 904 217 838 q 579 971 444 971 q 759 937 674 971 q 911 842 844 903 l 1008 939 l 1042 906 l 944 808 m 579 925 q 353 865 457 925 q 190 701 250 804 q 129 475 129 597 q 159 313 129 390 q 244 175 189 235 l 879 810 q 742 895 819 865 q 579 925 664 925 m 579 26 q 804 87 701 26 q 967 250 907 147 q 1028 475 1028 353 q 998 638 1028 560 q 913 776 968 715 l 278 142 q 417 56 339 86 q 579 26 494 26 m 657 1210 l 688 1179 l 499 990 l 468 1019 l 657 1210 z "},"ǿ":{"ha":767,"x_min":69,"x_max":697,"o":"m 619 500 q 677 406 657 458 q 697 294 697 353 q 655 138 697 210 q 540 23 613 65 q 383 -19 468 -19 q 178 56 267 -19 l 103 -19 l 69 14 l 144 89 q 69 293 69 178 q 112 450 69 378 q 226 565 154 522 q 383 607 299 607 q 492 588 440 607 q 586 533 544 568 l 664 610 l 697 576 l 619 500 m 117 293 q 133 202 117 246 q 179 124 150 158 l 553 499 q 474 544 518 528 q 383 560 431 560 q 250 524 311 560 q 153 426 189 488 q 117 293 117 365 m 383 28 q 517 64 456 28 q 614 161 578 100 q 650 294 650 222 q 586 465 650 393 l 213 90 q 383 28 286 28 m 463 888 l 493 857 l 304 668 l 274 697 l 463 888 z "},"Ș":{"ha":499,"x_min":104,"x_max":394,"o":"m 140 -14 q 104 -8 119 -14 l 104 42 q 140 36 122 36 q 290 97 233 36 q 346 250 346 157 q 321 360 346 314 q 244 471 296 407 q 163 589 190 536 q 135 717 135 642 q 166 845 135 789 q 253 933 197 901 q 378 964 308 964 l 385 964 l 385 915 l 378 915 q 239 860 294 915 q 183 718 183 804 q 208 607 183 654 q 285 496 233 560 q 367 375 339 429 q 394 244 394 321 q 363 110 394 169 q 273 19 331 51 q 140 -14 215 -14 m 193 -69 l 264 -69 l 264 -199 l 193 -294 l 193 -69 z "},"ș":{"ha":322,"x_min":69,"x_max":253,"o":"m 92 -14 q 69 -11 78 -14 l 69 36 q 92 33 78 33 q 174 67 143 33 q 206 153 206 101 q 190 219 206 190 q 143 288 175 247 q 91 366 108 332 q 74 447 74 400 q 117 560 74 517 q 228 604 161 604 l 232 604 l 232 558 l 228 558 q 151 528 182 558 q 121 449 121 497 q 136 383 121 411 q 182 315 151 356 q 235 235 218 269 q 253 153 253 201 q 208 33 253 81 q 92 -14 163 -14 m 125 -69 l 196 -69 l 196 -199 l 125 -294 l 125 -69 z "},"Ț":{"ha":549,"x_min":21,"x_max":528,"o":"m 294 0 l 247 0 l 247 904 l 21 904 l 21 951 l 528 951 l 528 904 l 294 904 l 294 0 m 239 -69 l 310 -69 l 310 -199 l 239 -294 l 239 -69 z "},"ț":{"ha":344,"x_min":49,"x_max":310,"o":"m 196 540 l 196 0 l 149 0 l 149 540 l 49 540 l 49 588 l 149 588 l 149 807 l 196 835 l 196 588 l 310 588 l 310 540 l 196 540 m 138 -69 l 208 -69 l 208 -199 l 138 -294 l 138 -69 z "},"ȷ":{"ha":269,"x_min":0,"x_max":158,"o":"m 158 -131 q 118 -237 158 -199 q 17 -276 78 -276 q 0 -275 7 -276 l 0 -225 l 17 -226 q 85 -201 58 -226 q 111 -131 111 -175 l 111 588 l 158 588 l 158 -131 z "},"ˆ":{"ha":463,"x_min":42,"x_max":421,"o":"m 231 899 l 421 708 l 390 679 l 231 838 l 72 679 l 42 708 l 231 899 z "},"ˇ":{"ha":463,"x_min":42,"x_max":421,"o":"m 231 658 l 42 847 l 72 878 l 231 718 l 390 878 l 421 847 l 231 658 z "},"˘":{"ha":565,"x_min":42,"x_max":524,"o":"m 524 814 q 412 740 475 765 q 282 714 349 714 q 153 740 215 714 q 42 814 90 765 l 72 844 q 170 779 115 801 q 283 757 225 757 q 396 779 342 757 q 493 844 450 801 l 524 814 z "},"˙":{"ha":169,"x_min":42,"x_max":128,"o":"m 85 821 q 115 808 103 821 q 128 778 128 796 q 115 747 128 760 q 85 735 103 735 q 54 747 67 735 q 42 778 42 760 q 54 808 42 796 q 85 821 67 821 z "},"˚":{"ha":358,"x_min":42,"x_max":317,"o":"m 179 642 q 82 682 122 642 q 42 779 42 722 q 82 876 42 836 q 179 917 122 917 q 276 876 236 917 q 317 779 317 836 q 276 682 317 722 q 179 642 236 642 m 179 878 q 110 849 139 878 q 81 779 81 819 q 110 710 81 739 q 179 681 139 681 q 249 710 219 681 q 278 779 278 739 q 249 849 278 819 q 179 878 219 878 z "},"˛":{"ha":269,"x_min":61,"x_max":224,"o":"m 224 -276 q 109 -228 157 -276 q 61 -114 61 -181 q 109 0 61 -47 q 224 47 157 47 l 224 0 q 142 -33 176 0 q 108 -114 108 -67 q 142 -195 108 -161 q 224 -229 176 -229 l 224 -276 z "},"˜":{"ha":529,"x_min":42,"x_max":488,"o":"m 361 711 q 304 724 328 711 q 251 761 281 736 q 209 791 228 781 q 168 801 190 801 q 108 778 131 801 q 85 717 85 754 l 42 717 l 42 721 q 77 809 42 774 q 168 844 113 844 q 224 832 201 844 q 278 794 247 819 q 320 765 301 775 q 361 754 339 754 q 422 778 399 754 q 444 840 444 803 l 488 840 l 488 836 q 452 747 488 782 q 361 711 417 711 z "},"˝":{"ha":401,"x_min":42,"x_max":360,"o":"m 42 685 l 142 889 l 181 869 l 81 667 l 42 685 m 221 685 l 321 889 l 360 869 l 260 667 l 221 685 z "},"̦":{"ha":0,"x_min":-154,"x_max":-83,"o":"m -154 -69 l -83 -69 l -83 -199 l -154 -294 l -154 -69 z "},"Ẁ":{"ha":1136,"x_min":21,"x_max":1115,"o":"m 568 794 l 335 -29 l 21 951 l 72 951 l 332 126 l 565 951 l 571 951 l 804 126 l 1064 951 l 1115 951 l 801 -29 l 568 794 m 458 1179 l 489 1210 l 678 1019 l 647 990 l 458 1179 z "},"ẁ":{"ha":814,"x_min":14,"x_max":800,"o":"m 749 588 l 800 588 l 563 -29 l 407 446 l 251 -29 l 14 588 l 65 588 l 249 107 l 406 588 l 408 588 l 565 107 l 749 588 m 297 860 l 328 890 l 517 700 l 486 671 l 297 860 z "},"Ẃ":{"ha":1136,"x_min":21,"x_max":1115,"o":"m 568 794 l 335 -29 l 21 951 l 72 951 l 332 126 l 565 951 l 571 951 l 804 126 l 1064 951 l 1115 951 l 801 -29 l 568 794 m 647 1210 l 678 1179 l 489 990 l 458 1019 l 647 1210 z "},"ẃ":{"ha":814,"x_min":14,"x_max":800,"o":"m 749 588 l 800 588 l 563 -29 l 407 446 l 251 -29 l 14 588 l 65 588 l 249 107 l 406 588 l 408 588 l 565 107 l 749 588 m 486 888 l 517 857 l 328 668 l 297 697 l 486 888 z "},"Ẅ":{"ha":1136,"x_min":21,"x_max":1115,"o":"m 568 794 l 335 -29 l 21 951 l 72 951 l 332 126 l 565 951 l 571 951 l 804 126 l 1064 951 l 1115 951 l 801 -29 l 568 794 m 461 1143 q 492 1131 479 1143 q 504 1100 504 1118 q 492 1069 504 1082 q 461 1057 479 1057 q 431 1069 443 1057 q 418 1100 418 1082 q 431 1131 418 1118 q 461 1143 443 1143 m 676 1143 q 707 1131 694 1143 q 719 1100 719 1118 q 707 1069 719 1082 q 676 1057 694 1057 q 646 1069 658 1057 q 633 1100 633 1082 q 646 1131 633 1118 q 676 1143 658 1143 z "},"ẅ":{"ha":814,"x_min":14,"x_max":800,"o":"m 749 588 l 800 588 l 563 -29 l 407 446 l 251 -29 l 14 588 l 65 588 l 249 107 l 406 588 l 408 588 l 565 107 l 749 588 m 299 819 q 329 807 317 819 q 342 776 342 794 q 329 746 342 758 q 299 733 317 733 q 268 746 281 733 q 256 776 256 758 q 268 807 256 794 q 299 819 281 819 m 514 819 q 544 807 532 819 q 557 776 557 794 q 544 746 557 758 q 514 733 532 733 q 483 746 496 733 q 471 776 471 758 q 483 807 471 794 q 514 819 496 819 z "},"Ỳ":{"ha":776,"x_min":21,"x_max":756,"o":"m 411 0 l 364 0 l 364 382 l 21 951 l 76 951 l 389 433 l 700 951 l 756 951 l 411 381 l 411 0 m 278 1179 l 308 1210 l 497 1019 l 467 990 l 278 1179 z "},"ỳ":{"ha":503,"x_min":14,"x_max":489,"o":"m 65 588 l 251 97 l 438 588 l 489 588 l 165 -257 l 114 -257 l 228 35 l 14 588 l 65 588 m 142 860 l 172 890 l 361 700 l 331 671 l 142 860 z "},"–":{"ha":607,"x_min":28,"x_max":579,"o":"m 28 315 l 579 315 l 579 272 l 28 272 l 28 315 z "},"—":{"ha":792,"x_min":28,"x_max":764,"o":"m 28 315 l 764 315 l 764 272 l 28 272 l 28 315 z "},"‘":{"ha":299,"x_min":114,"x_max":185,"o":"m 114 951 l 185 951 l 185 694 l 114 860 l 114 951 z "},"’":{"ha":299,"x_min":114,"x_max":185,"o":"m 114 951 l 185 951 l 185 860 l 114 694 l 114 951 z "},"‚":{"ha":299,"x_min":114,"x_max":185,"o":"m 114 143 l 185 143 l 185 53 l 114 -112 l 114 143 z "},"“":{"ha":453,"x_min":114,"x_max":339,"o":"m 114 951 l 185 951 l 185 694 l 114 860 l 114 951 m 268 951 l 339 951 l 339 694 l 268 860 l 268 951 z "},"”":{"ha":453,"x_min":114,"x_max":339,"o":"m 114 951 l 185 951 l 185 860 l 114 694 l 114 951 m 268 951 l 339 951 l 339 860 l 268 694 l 268 951 z "},"„":{"ha":453,"x_min":114,"x_max":339,"o":"m 114 143 l 185 143 l 185 53 l 114 -112 l 114 143 m 268 143 l 339 143 l 339 53 l 268 -112 l 268 143 z "},"†":{"ha":529,"x_min":42,"x_max":488,"o":"m 286 319 l 243 319 l 243 717 l 42 717 l 42 760 l 243 760 l 243 951 l 286 951 l 286 760 l 488 760 l 488 717 l 286 717 l 286 319 z "},"‡":{"ha":529,"x_min":42,"x_max":488,"o":"m 243 717 l 42 717 l 42 760 l 243 760 l 243 951 l 286 951 l 286 760 l 488 760 l 488 717 l 286 717 l 286 363 l 488 363 l 488 319 l 286 319 l 286 126 l 243 126 l 243 319 l 42 319 l 42 363 l 243 363 l 243 717 z "},"•":{"ha":367,"x_min":83,"x_max":283,"o":"m 183 193 q 113 223 142 193 q 83 293 83 253 q 113 364 83 335 q 183 393 142 393 q 254 364 225 393 q 283 293 283 335 q 254 223 283 253 q 183 193 225 193 z "},"…":{"ha":894,"x_min":114,"x_max":781,"o":"m 114 143 l 185 143 l 185 0 l 114 0 l 114 143 m 413 143 l 483 143 l 483 0 l 413 0 l 413 143 m 711 143 l 781 143 l 781 0 l 711 0 l 711 143 z "},"‰":{"ha":1526,"x_min":63,"x_max":1464,"o":"m 269 557 q 166 585 214 557 q 90 660 118 613 q 63 764 63 708 q 90 867 63 819 q 166 943 118 915 q 269 971 214 971 q 373 943 325 971 q 449 867 421 915 q 476 764 476 819 q 449 660 476 708 q 373 585 421 613 q 269 557 325 557 m 289 0 l 699 951 l 746 951 l 336 0 l 289 0 m 269 604 q 381 651 335 604 q 428 764 428 699 q 381 876 428 829 q 269 922 335 922 q 158 876 204 922 q 111 764 111 829 q 158 651 111 699 q 269 604 204 604 m 764 -19 q 660 8 708 -19 q 585 84 613 36 q 557 188 557 132 q 585 291 557 243 q 660 367 613 339 q 764 394 708 394 q 868 367 821 394 q 943 291 915 339 q 971 188 971 243 q 943 84 971 132 q 868 8 915 36 q 764 -19 821 -19 m 1257 -19 q 1153 8 1201 -19 q 1078 84 1106 36 q 1050 188 1050 132 q 1078 291 1050 243 q 1153 367 1106 339 q 1257 394 1201 394 q 1360 367 1313 394 q 1436 291 1408 339 q 1464 188 1464 243 q 1436 84 1464 132 q 1360 8 1408 36 q 1257 -19 1313 -19 m 764 29 q 877 76 831 29 q 924 188 924 122 q 877 299 924 253 q 764 346 831 346 q 652 299 699 346 q 606 188 606 253 q 652 76 606 122 q 764 29 699 29 m 1257 29 q 1369 76 1322 29 q 1415 188 1415 122 q 1369 299 1415 253 q 1257 346 1322 346 q 1145 299 1192 346 q 1099 188 1099 253 q 1145 76 1099 122 q 1257 29 1192 29 z "},"‹":{"ha":313,"x_min":42,"x_max":271,"o":"m 42 294 l 221 585 l 271 585 l 93 294 l 271 4 l 221 4 l 42 294 z "},"›":{"ha":313,"x_min":42,"x_max":271,"o":"m 221 294 l 42 585 l 93 585 l 271 294 l 93 4 l 42 4 l 221 294 z "},"⁄":{"ha":567,"x_min":21,"x_max":546,"o":"m 21 -78 l 506 1046 l 546 1029 l 60 -96 l 21 -78 z "},"€":{"ha":1076,"x_min":42,"x_max":1035,"o":"m 685 26 q 858 61 776 26 q 1001 158 940 96 l 1035 125 q 875 19 965 57 q 685 -19 785 -19 q 480 24 576 -19 q 314 147 383 68 q 213 324 244 225 l 42 324 l 42 369 l 200 369 q 189 475 189 422 q 200 581 189 528 l 42 581 l 42 628 l 213 628 q 315 805 244 726 q 481 927 385 883 q 685 971 576 971 q 875 933 785 971 q 1035 825 965 894 l 1001 793 q 857 890 939 856 q 685 925 775 925 q 503 887 589 925 q 355 781 418 849 q 261 628 292 714 l 696 628 l 696 581 l 247 581 q 235 475 235 531 q 247 369 235 419 l 696 369 l 696 324 l 261 324 q 424 109 308 192 q 685 26 540 26 z "},"℗":{"ha":1157,"x_min":83,"x_max":1074,"o":"m 579 -19 q 331 47 444 -19 q 150 227 217 114 q 83 475 83 340 q 150 724 83 610 q 331 904 217 838 q 579 971 444 971 q 827 904 714 971 q 1007 724 940 838 q 1074 475 1074 610 q 1007 227 1074 340 q 827 47 940 114 q 579 -19 714 -19 m 579 18 q 808 80 703 18 q 974 247 913 142 q 1036 475 1036 351 q 974 704 1036 599 q 808 872 913 810 q 579 933 703 933 q 349 872 454 933 q 183 705 244 810 q 121 475 121 600 q 183 247 121 351 q 350 80 244 142 q 579 18 456 18 m 524 353 l 524 172 l 478 172 l 478 776 l 547 776 q 653 748 604 776 q 730 670 701 719 q 758 564 758 621 q 730 458 758 507 q 653 381 701 410 q 547 353 604 353 l 524 353 m 524 729 l 524 400 l 547 400 q 664 448 615 400 q 713 564 713 496 q 665 681 713 633 q 547 729 617 729 l 524 729 z "},"™":{"ha":875,"x_min":58,"x_max":750,"o":"m 703 821 l 599 681 l 493 821 l 493 475 l 447 475 l 447 964 l 599 758 l 750 964 l 750 475 l 703 475 l 703 821 m 208 475 l 161 475 l 161 904 l 58 904 l 58 951 l 311 951 l 311 904 l 208 904 l 208 475 z "},"−":{"ha":768,"x_min":28,"x_max":740,"o":"m 28 497 l 740 497 l 740 454 l 28 454 l 28 497 z "},"◊":{"ha":388,"x_min":83,"x_max":304,"o":"m 83 293 l 194 404 l 304 293 l 194 183 l 83 293 z "},"":{"ha":1122,"x_min":7,"x_max":1115,"o":"m 904 -26 l 561 222 l 218 -26 l 350 376 l 7 625 l 431 625 l 561 1028 l 692 625 l 1115 625 l 774 376 l 904 -26 m 561 910 l 457 589 l 119 589 l 393 390 l 288 69 l 561 268 l 835 69 l 731 390 l 1004 589 l 665 589 l 561 910 z "},"ﬁ":{"ha":614,"x_min":49,"x_max":503,"o":"m 196 540 l 196 0 l 149 0 l 149 540 l 49 540 l 49 588 l 149 588 l 149 807 q 190 914 149 875 q 293 953 232 953 q 310 951 303 953 l 310 901 l 293 903 q 224 876 251 903 q 196 807 196 850 l 196 588 l 310 588 l 310 540 l 196 540 m 456 838 l 503 838 l 503 718 l 456 718 l 456 838 m 456 588 l 503 588 l 503 0 l 456 0 l 456 588 z "},"ﬂ":{"ha":614,"x_min":49,"x_max":503,"o":"m 196 540 l 196 0 l 149 0 l 149 540 l 49 540 l 49 588 l 149 588 l 149 807 q 190 914 149 875 q 293 953 232 953 q 310 951 303 953 l 310 901 l 293 903 q 224 876 251 903 q 196 807 196 850 l 196 588 l 310 588 l 310 540 l 196 540 m 456 951 l 503 951 l 503 0 l 456 0 l 456 951 z "}}}
